<svg width="64" height="64" viewBox="0 0 78 78" fill="none" xmlns="http://www.w3.org/2000/svg">
<path d="M57.4282 35.0173C55.2442 36.5882 52.4908 37.1218 49.8107 37.3152C45.4148 37.6291 40.9984 37.1385 36.7785 35.8675C37.3165 37.685 38.4697 39.2589 40.0405 40.3198C37.947 43.212 33.6757 44.2697 30.4746 42.6894C29.9488 44.5037 29.615 46.8811 31.2046 47.8998C31.9176 48.3569 32.8177 48.3678 33.6648 48.3678C38.9968 48.3428 44.878 48.1104 48.7733 44.4678C49.3583 43.9202 49.9356 43.2775 50.7218 43.1215C51.2226 43.0232 51.7358 43.1402 52.2443 43.1886C54.9899 43.4554 57.5218 41.7425 59.5763 39.8923C61.2596 38.3698 62.8414 36.6444 63.6792 34.5353C65.2906 30.4793 63.9756 25.2002 61.8805 21.5452C61.932 26.4014 61.829 31.8474 57.4282 35.0173Z" fill="#D9D9D9"/>
<path d="M18.4532 46.488C17.8264 46.049 17.2956 45.4869 16.8933 44.8359C16.491 44.1849 16.2255 43.4588 16.1132 42.7019L13.2163 42.6083C12.9063 42.615 12.5972 42.5724 12.3006 42.4819C11.8326 42.315 11.4878 41.9312 11.1805 41.5459C9.82038 39.8304 8.88736 37.8162 8.45829 35.6694C8.24613 37.5632 7.15101 39.3416 7.30389 41.2417C7.43181 42.8173 8.42397 44.2229 9.67197 45.1932C10.92 46.1635 12.4082 46.7672 13.884 47.3382C14.1788 47.4536 14.497 47.5847 14.664 47.8577C14.7718 48.0846 14.8252 48.3335 14.82 48.5846C14.8968 49.6182 15.2143 50.6195 15.7471 51.5085C16.2799 52.3975 17.0132 53.1495 17.8885 53.7045C18.0243 53.8111 18.1933 53.8664 18.3658 53.8605C18.5221 53.8204 18.6604 53.7293 18.759 53.6016C20.4094 51.8138 20.8384 49.3225 22.6044 47.5909C22.1707 47.2695 21.1738 47.4911 20.5764 47.3772C19.8145 47.2317 19.0914 46.9288 18.4532 46.488Z" fill="#D9D9D9"/>
<path d="M23.8228 20.631C25.5169 19.8853 27.4326 19.8838 29.2453 19.5047C32.1848 18.8802 34.8251 17.2757 36.7333 14.9542C36.9158 16.2022 38.0578 17.4361 37.4868 18.5656C37.3074 18.9228 36.9814 19.1802 36.6647 19.4267C35.5914 20.2613 34.5259 21.1068 33.4448 21.932C32.1875 22.8914 31.8848 22.425 30.5885 21.762C29.002 20.9524 25.584 19.7512 23.8228 20.631Z" fill="#D9D9D9"/>
<path d="M22.1614 60.996C22.8937 59.3341 23.7691 57.739 24.7775 56.2286C24.8337 56.1413 24.8883 56.0586 24.9476 55.9712C26.4966 53.7046 29.3811 49.4832 32.1891 48.9996C33.6992 48.7375 35.1453 48.9856 36.6788 49.2476C38.9002 49.6267 41.418 50.0557 44.2884 48.8124C45.5847 48.2477 46.8032 47.519 47.9139 46.644C48.3076 46.317 48.6706 45.9546 48.9981 45.5614C49.4754 45.0232 49.9247 44.5162 50.3818 44.4085C50.8356 44.3244 51.2962 44.2826 51.7577 44.2837C52.3767 44.2817 52.9941 44.2212 53.6016 44.1028C55.9972 43.5559 58.2451 42.4945 60.1895 40.9921C64.4468 37.6912 66.612 32.6227 65.988 27.4295C65.7785 25.7862 65.3411 24.1801 64.6886 22.6574C62.9445 18.5172 60.3611 15.4175 57.0071 13.4425C56.9041 13.3817 56.7919 13.338 56.6748 13.313C55.9842 13.1697 55.2848 13.0728 54.5813 13.0229C53.884 12.9652 53.2584 12.5814 52.533 12.1368C51.8466 11.7156 51.0698 11.2398 50.1072 10.9762C48.5051 10.5394 47.2602 9.92472 45.6472 9.01212C45.5519 8.95908 45.4495 8.92019 45.343 8.89668C43.0699 8.4053 40.7224 8.36502 38.4338 8.77812C37.7057 8.92011 36.9888 9.11458 36.2888 9.36C35.4838 9.62364 34.7288 9.87168 33.8864 9.92472C33.1454 9.97152 32.3794 9.99648 31.6368 10.0214C28.2704 10.1291 24.79 10.2414 21.709 12.3614C19.812 13.6765 18.252 15.444 17.3816 17.2723C17.1226 17.3254 16.8662 17.3857 16.6125 17.4533C10.7906 18.9353 8.46459 24.6527 8.22903 29.5105C8.21499 29.8225 8.21031 30.1345 8.21655 30.4543C8.13075 30.5354 8.04963 30.6181 7.97007 30.7055C6.77199 31.98 4.90779 34.944 5.83755 40.4882C6.37263 43.6784 8.64555 46.3382 12.5892 48.3943C12.8784 48.5303 13.1886 48.6163 13.5065 48.6486C13.5362 48.7625 13.5642 48.8826 13.5845 48.9606C13.6334 49.2111 13.7039 49.457 13.7951 49.6954C14.264 50.8097 14.9204 51.8354 15.7358 52.728C16.0201 53.0193 16.3291 53.2855 16.6593 53.5236C17.2178 53.9542 17.6748 54.3286 17.614 54.5626C17.509 54.8876 17.3716 55.2011 17.2037 55.4986C17.01 55.8564 16.8431 56.2282 16.7045 56.6108C16.625 56.8433 16.3551 57.8354 16.1414 58.8307C15.7342 60.7168 15.7826 61.3361 16.0025 61.7682C16.076 61.9135 16.1782 62.0425 16.3029 62.1473C16.4275 62.2521 16.5721 62.3307 16.7279 62.3782C17.1205 62.4829 17.526 62.5317 17.9322 62.5232C18.4043 62.5191 18.8748 62.4669 19.3362 62.3672C20.1518 62.195 20.9394 61.9099 21.6762 61.5202C21.8927 61.4054 22.0637 61.2206 22.1614 60.996ZM18.8854 60.2316C18.6166 60.2873 18.3438 60.3207 18.0695 60.3314C18.2456 59.311 18.4784 58.3011 18.7668 57.3066C18.8726 57.0258 18.9977 56.7526 19.1412 56.4892C19.3839 56.0531 19.578 55.5917 19.72 55.1132C19.7439 55.0261 19.7621 54.9375 19.7746 54.848C19.8268 54.7918 19.8729 54.7301 19.9119 54.664C20.1209 54.302 20.3565 53.884 20.6045 53.4331C21.7636 51.3505 23.5155 48.204 25.1285 46.7922C25.2403 46.6989 25.3323 46.5842 25.3991 46.4549C25.4659 46.3255 25.5062 46.1841 25.5175 46.039C25.5289 45.8938 25.5111 45.7479 25.4653 45.6097C25.4194 45.4715 25.3464 45.3439 25.2505 45.2344C25.1545 45.1249 25.0377 45.0356 24.9068 44.9719C24.7759 44.9082 24.6336 44.8713 24.4882 44.8634C24.3428 44.8555 24.1973 44.8767 24.0603 44.9258C23.9232 44.975 23.7974 45.051 23.6902 45.1495C21.7917 46.8109 20.0024 50.0245 18.6982 52.3708C18.4517 52.1446 18.2006 51.9511 17.9868 51.7858C17.7589 51.6222 17.5435 51.4418 17.3426 51.246C16.699 50.5436 16.1794 49.7371 15.806 48.8608C15.7841 48.7999 15.7389 48.6018 15.7077 48.4692C15.561 47.8452 15.4362 47.3054 15.0431 46.9513C14.65 46.5972 14.2085 46.5457 13.8357 46.4833C13.7499 46.4693 13.6235 46.4506 13.5658 46.435C10.2789 44.719 8.40219 42.5911 7.98879 40.1201C7.72047 38.5211 7.33827 34.5478 9.56283 32.189L9.57531 32.175C9.69591 32.0451 9.82917 31.9275 9.97311 31.824C10.1213 31.7159 10.2398 31.5721 10.3178 31.4061C10.3958 31.2401 10.4307 31.057 10.4193 30.874C10.3941 30.4537 10.3914 30.0324 10.4115 29.6119C10.608 25.5356 12.48 20.748 17.16 19.5686H17.1756C17.5512 19.4679 17.9319 19.3872 18.316 19.3268C18.5023 19.2979 18.678 19.2212 18.8259 19.1042C18.9738 18.9872 19.0889 18.8339 19.16 18.6592C19.16 18.6436 19.1724 18.6264 19.1802 18.6092C19.8401 16.9837 21.2082 15.366 22.9508 14.1679C25.5029 12.4082 28.5168 12.3115 31.7102 12.2086C32.4683 12.1836 33.2514 12.1586 34.0252 12.1087C35.139 12.0385 36.0688 11.7343 36.9689 11.441C37.5702 11.2286 38.1859 11.0592 38.8113 10.934C39.5618 10.8009 40.3208 10.7211 41.0826 10.6954C41.1797 10.8076 41.2986 10.8989 41.4321 10.9637C41.9293 11.2222 42.3377 11.6237 42.6049 12.1163C42.8721 12.6089 42.9857 13.1702 42.9312 13.728C42.9133 13.8704 42.9237 14.0149 42.9616 14.1533C42.9996 14.2917 43.0645 14.4213 43.1526 14.5346C43.2407 14.6479 43.3503 14.7427 43.475 14.8136C43.5998 14.8845 43.7373 14.9302 43.8797 14.9479C43.9254 14.9502 43.9713 14.9502 44.017 14.9479C44.283 14.9477 44.5397 14.8504 44.739 14.6744C44.9384 14.4983 45.0666 14.2555 45.0996 13.9916C45.2179 12.9311 44.9885 11.8608 44.446 10.9418C44.5349 10.9574 44.6254 10.9715 44.7159 10.9902C46.4085 11.9418 47.7579 12.5939 49.53 13.0775C50.1915 13.2584 50.778 13.6141 51.388 13.9916C52.2288 14.508 53.182 15.093 54.4128 15.1944C54.9626 15.2334 55.5096 15.3053 56.0508 15.4097C58.9166 17.146 61.1427 19.8666 62.6715 23.4983C63.2452 24.8341 63.6301 26.2433 63.815 27.6853C64.35 32.1079 62.4936 36.4322 58.851 39.2527C57.1601 40.562 55.2043 41.4872 53.1196 41.964C52.6466 42.0502 52.1668 42.0935 51.686 42.0935C51.4769 42.0935 51.2648 42.1075 51.051 42.12C51.051 42.12 51.051 42.106 51.051 42.0982C51.0267 41.9568 50.9747 41.8216 50.8981 41.7003C50.8215 41.579 50.7218 41.474 50.6046 41.3913C50.4874 41.3086 50.355 41.2498 50.2151 41.2182C50.0751 41.1867 49.9304 41.183 49.789 41.2074C48.2504 41.4501 46.6761 41.3219 45.197 40.8335C43.718 40.3451 42.3769 39.5106 41.2854 38.3994C41.188 38.2895 41.0694 38.2004 40.9367 38.1374C40.804 38.0744 40.66 38.0388 40.5133 38.0328C40.3665 38.0268 40.22 38.0504 40.0826 38.1023C39.9452 38.1542 39.8197 38.2332 39.7136 38.3347C39.6074 38.4363 39.5229 38.5581 39.4649 38.6931C39.407 38.8281 39.3769 38.9733 39.3764 39.1202C39.3759 39.2671 39.405 39.4125 39.4621 39.5479C39.5191 39.6832 39.6028 39.8057 39.7083 39.9079C41.863 42.1378 44.8049 43.4358 47.9045 43.524C47.7142 43.719 47.5364 43.9202 47.3648 44.1137C47.1212 44.4055 46.8547 44.6773 46.5676 44.9264C45.6033 45.6869 44.5459 46.3212 43.4211 46.814C41.1466 47.7984 39.1545 47.4583 37.0454 47.0995C36.7193 47.0434 36.3902 46.9872 36.0594 46.9357C35.9956 46.8785 35.9255 46.8288 35.8504 46.7875C33.5848 45.553 31.8918 43.4815 31.133 41.0155C31.0931 40.8761 31.026 40.7459 30.9353 40.6327C30.8447 40.5195 30.7324 40.4255 30.605 40.3561C30.4776 40.2868 30.3377 40.2435 30.1934 40.2289C30.0491 40.2142 29.9033 40.2284 29.7646 40.2707C29.6259 40.3129 29.4969 40.3824 29.3854 40.4751C29.2738 40.5677 29.1818 40.6817 29.1147 40.8102C29.0476 40.9388 29.0068 41.0795 28.9947 41.224C28.9826 41.3685 28.9994 41.514 29.0441 41.652C29.6467 43.603 30.7341 45.3693 32.2047 46.786C32.0768 46.8016 31.9473 46.8203 31.8178 46.8437C28.0988 47.4848 24.9975 52.0244 23.1426 54.7373C23.074 54.8387 23.01 54.9354 22.9523 55.0243C21.9515 56.5259 21.0729 58.1056 20.3253 59.748C19.867 59.962 19.3861 60.1237 18.8916 60.23L18.8854 60.2316Z" fill="#1B1B1B"/>
<path d="M30.7944 23.088C29.5059 25.2174 29.0925 27.7087 29.665 29.9333C29.7007 30.0722 29.7635 30.2027 29.8497 30.3173C29.9358 30.4319 30.0438 30.5285 30.1673 30.6014C30.2907 30.6744 30.4274 30.7223 30.5694 30.7424C30.7114 30.7625 30.856 30.7545 30.9949 30.7187C31.1338 30.683 31.2643 30.6202 31.3789 30.534C31.4936 30.4479 31.5901 30.3399 31.663 30.2164C31.736 30.093 31.7839 29.9563 31.804 29.8143C31.8241 29.6723 31.8161 29.5277 31.7803 29.3888C31.3513 27.7212 31.6789 25.8273 32.6773 24.1925C33.6757 22.5576 35.2139 21.4032 36.8893 21.0241C37.1719 20.9604 37.4176 20.787 37.5724 20.5422C37.7271 20.2973 37.7783 20.001 37.7146 19.7184C37.6509 19.4358 37.4775 19.1901 37.2326 19.0353C36.9878 18.8806 36.6914 18.8294 36.4089 18.8931C34.782 19.2797 33.3015 20.128 32.1454 21.3361C30.8005 20.5903 29.3187 20.1241 27.789 19.9654C26.2594 19.8067 24.7134 19.9588 23.244 20.4126C22.9683 20.5011 22.739 20.6956 22.6066 20.9532C22.4742 21.2108 22.4496 21.5104 22.5381 21.7862C22.6267 22.0619 22.8211 22.2912 23.0787 22.4236C23.3363 22.556 23.6359 22.5806 23.9117 22.4921C26.1961 21.7873 28.6652 22.0011 30.7944 23.088Z" fill="#1B1B1B"/>
<path d="M46.2509 20.0507C49.009 20.5187 51.2803 23.0677 51.4238 25.8601C51.4382 26.1399 51.5596 26.4034 51.7629 26.5962C51.9661 26.789 52.2357 26.8963 52.5158 26.8959H52.572C52.8612 26.881 53.1326 26.7518 53.3266 26.5368C53.5205 26.3218 53.6211 26.0385 53.6063 25.7493C53.4128 21.9741 50.3428 18.525 46.6159 17.8979C46.4728 17.8699 46.3256 17.8708 46.1829 17.9007C46.0402 17.9305 45.9049 17.9886 45.7851 18.0715C45.6652 18.1545 45.5631 18.2606 45.4849 18.3836C45.4066 18.5066 45.3538 18.644 45.3296 18.7878C45.3053 18.9315 45.3101 19.0787 45.3436 19.2205C45.3771 19.3624 45.4386 19.4961 45.5247 19.6139C45.6107 19.7316 45.7194 19.8308 45.8444 19.9059C45.9694 19.9809 46.1081 20.0301 46.2524 20.0507H46.2509Z" fill="#1B1B1B"/>
<path d="M21.8588 30.0472C21.726 30.1015 21.6052 30.1814 21.5033 30.2823C21.4015 30.3833 21.3205 30.5033 21.265 30.6356C21.2095 30.7678 21.1806 30.9097 21.18 31.0531C21.1793 31.1966 21.207 31.3387 21.2613 31.4715C21.383 31.7694 20.9025 32.3154 20.2598 32.9971C19.9649 33.3091 19.6514 33.6445 19.3706 34.008C17.7201 32.8661 15.4986 32.565 13.6235 33.3279C13.3546 33.4369 13.14 33.6483 13.0269 33.9155C12.9138 34.1828 12.9116 34.484 13.0206 34.7529C13.1296 35.0219 13.341 35.2365 13.6082 35.3495C13.8755 35.4626 14.1767 35.4649 14.4456 35.3559C15.1993 35.0716 16.0215 35.0229 16.8035 35.2162C17.5854 35.4095 18.2902 35.8358 18.8246 36.4385C18.9277 36.5577 19.0554 36.6532 19.1989 36.7184C19.3425 36.7835 19.4984 36.8168 19.656 36.816C19.7331 36.816 19.8099 36.8081 19.8854 36.7926C20.0795 36.7511 20.2586 36.6573 20.4035 36.5215C20.5484 36.3858 20.6535 36.213 20.7075 36.022C20.837 35.554 21.3502 35.0142 21.8463 34.4885C22.7308 33.5525 23.9429 32.2608 23.2784 30.6384C23.1675 30.3726 22.9562 30.1613 22.6903 30.0505C22.4244 29.9398 22.1255 29.9386 21.8588 30.0472Z" fill="#1B1B1B"/>
</svg>
