<svg width="64" height="64" viewBox="0 0 78 78" fill="none" xmlns="http://www.w3.org/2000/svg">
<path d="M52.3927 40.5865C51.9886 45.9685 47.4709 50.7577 42.1216 51.4738C40.1997 51.7312 38.0765 51.4457 36.6616 50.1259C39.6739 50.2108 42.602 49.1255 44.8313 47.098C47.5239 44.6254 48.8998 40.9875 49.3803 37.3636C49.5909 35.7864 49.5675 34.2576 48.8483 32.8099C48.4193 31.9473 47.5567 31.1532 47.4646 30.1813C50.8217 32.0081 52.6672 36.9393 52.3927 40.5865Z" fill="#D9D9D9"/>
<path d="M42.9266 11.051C43.2776 12.2803 42.7503 17.199 43.8049 18.6045C44.8595 20.0101 50.6564 17.5515 50.6564 17.5515L55.7514 14.7435L61.0226 21.7713C61.0226 21.7713 55.3037 28.9817 57.1569 29.8521C59.0102 30.7226 61.0226 31.434 61.0226 31.434L67.3469 33.8941L66.3001 42.8501C66.3001 42.8501 58.4907 43.7689 58.9197 47.0621C59.3487 50.3552 61.2051 53.2116 61.2051 53.2116L61.9071 55.848L55.5829 61.8212L47.5005 59.3611L55.4004 64.116L64.5357 56.0336C64.5357 56.0336 59.2177 50.207 60.3237 47.7765C61.4298 45.3461 69.4607 44.0871 69.4607 44.0871L69.2844 32.8427C69.2844 32.8427 59.0945 32.4917 59.6217 28.4497L64.0147 21.5982L62.7839 19.1381L55.7514 13.3349C55.7514 13.3349 48.8999 18.0773 47.4943 17.3753C46.0887 16.6733 44.5069 9.46919 44.5069 9.46919L43.6286 8.06519C43.6286 8.06519 42.5741 9.82798 42.9266 11.051Z" fill="#D9D9D9"/>
<path d="M39.39 27.0567C36.2232 26.9532 33.1451 28.112 30.8327 30.2781C28.5203 32.4442 27.1632 35.4402 27.0597 38.6069C26.9563 41.7737 28.1151 44.8518 30.2812 47.1642C32.4473 49.4765 35.4432 50.8337 38.61 50.9371C38.7254 50.9371 38.8408 50.9371 38.9578 50.9371C39.0748 50.9371 39.1903 50.9371 39.3057 50.9371C42.4153 50.8613 45.3727 49.5754 47.5489 47.353C49.7252 45.1306 50.9487 42.1469 50.9593 39.0364C50.9698 35.9259 49.7666 32.9339 47.6055 30.6967C45.4444 28.4596 42.4958 27.1536 39.3868 27.0567H39.39ZM39.2464 48.7547C39.0577 48.7547 38.8674 48.7547 38.6786 48.7547C36.1056 48.6801 33.6653 47.596 31.8851 45.7367C30.1049 43.8774 29.1279 41.3923 29.1652 38.8185C29.2025 36.2447 30.2511 33.7889 32.0844 31.982C33.9177 30.175 36.3884 29.1621 38.9625 29.1621C41.5366 29.1621 44.0073 30.175 45.8406 31.982C47.6739 33.7889 48.7226 36.2447 48.7599 38.8185C48.7971 41.3923 47.8201 43.8774 46.0399 45.7367C44.2598 47.596 41.8195 48.6801 39.2464 48.7547Z" fill="#1B1B1B"/>
<path d="M67.9535 31.5775L61.7931 30.4996C61.6279 30.4713 61.4723 30.4024 61.3405 30.2988C61.2086 30.1953 61.1047 30.0606 61.0381 29.9068L61.0193 29.86C60.9522 29.7011 60.9268 29.5276 60.9457 29.3561C60.9645 29.1846 61.0269 29.0208 61.127 28.8803L64.715 23.7666C65.1515 23.1501 65.3553 22.3988 65.2902 21.6462C65.225 20.8936 64.8952 20.1884 64.3593 19.656L58.3439 13.6344C57.8119 13.0998 57.1079 12.7705 56.3565 12.7049C55.6051 12.6392 54.8547 12.8414 54.238 13.2756L49.1197 16.8636C48.9814 16.9625 48.8202 17.0247 48.6513 17.0443C48.4824 17.064 48.3113 17.0404 48.154 16.9759L48.1322 16.9666H48.115C47.9566 16.9013 47.8172 16.797 47.71 16.6633C47.6028 16.5297 47.5312 16.371 47.5019 16.2022L46.424 10.0402C46.2931 9.29957 45.9055 8.62876 45.3292 8.14549C44.7529 7.66223 44.0249 7.39741 43.2728 7.39753H34.7349C33.9806 7.39639 33.2501 7.66192 32.6727 8.1472C32.0952 8.63249 31.7078 9.30628 31.579 10.0495L30.5042 16.2068C30.4771 16.3623 30.4143 16.5094 30.3206 16.6363C30.2269 16.7633 30.105 16.8668 29.9644 16.9385C29.9301 16.9494 29.8958 16.9619 29.863 16.9759C29.704 17.0428 29.5305 17.0679 29.359 17.0488C29.1875 17.0297 29.0237 16.967 28.8833 16.8667L23.765 13.2787C23.1485 12.8459 22.399 12.6448 21.6486 12.7107C20.8983 12.7766 20.1953 13.1054 19.6637 13.6391L13.6359 19.656C13.1015 20.1883 12.7725 20.8923 12.7072 21.6437C12.6418 22.3951 12.8442 23.1454 13.2787 23.7619L16.8667 28.8818C16.9662 29.0224 17.0282 29.186 17.0467 29.3571C17.0653 29.5283 17.0398 29.7014 16.9727 29.86C16.9585 29.8929 16.9465 29.9268 16.9369 29.9614C16.8651 30.1016 16.7615 30.2231 16.6345 30.3162C16.5075 30.4094 16.3605 30.4716 16.2052 30.498L10.0495 31.576C9.30688 31.705 8.63368 32.0919 8.14851 32.6687C7.66335 33.2455 7.39737 33.975 7.39746 34.7287V43.2588C7.397 44.0128 7.66281 44.7427 8.14801 45.3198C8.63321 45.8969 9.30662 46.2841 10.0495 46.4131L16.2083 47.4895C16.3637 47.5163 16.5107 47.5789 16.6377 47.6723C16.7647 47.7657 16.8682 47.8874 16.94 48.0277C16.9498 48.0627 16.9618 48.0971 16.9759 48.1307C17.043 48.2896 17.0684 48.4631 17.0495 48.6345C17.0307 48.806 16.9683 48.9698 16.8682 49.1104L13.2802 54.2256C12.8482 54.8427 12.6475 55.5923 12.7134 56.3426C12.7793 57.093 13.1076 57.7961 13.6406 58.3284L19.6684 64.3578C20.2012 64.8914 20.9053 65.2197 21.6565 65.2848C22.4077 65.3498 23.1578 65.1475 23.7743 64.7135L28.8943 61.1255C29.0341 61.0258 29.1971 60.9637 29.3678 60.9448C29.5384 60.926 29.7111 60.9511 29.8693 61.0178L29.9145 61.035C30.069 61.102 30.2043 61.2064 30.3084 61.3387C30.4124 61.4711 30.4818 61.6273 30.5104 61.7932L31.5868 67.952C31.7156 68.6953 32.103 69.3691 32.6805 69.8544C33.2579 70.3397 33.9884 70.6052 34.7427 70.604H43.2728C44.0271 70.6052 44.7575 70.3397 45.335 69.8544C45.9125 69.3691 46.2999 68.6953 46.4287 67.952L47.5035 61.7947C47.5324 61.6285 47.6021 61.4721 47.7064 61.3395C47.8107 61.2069 47.9463 61.1023 48.101 61.035L48.1462 61.0178C48.305 60.9511 48.4783 60.926 48.6495 60.9451C48.8207 60.9643 48.9842 61.0269 49.1243 61.127L54.2396 64.715C54.8556 65.1495 55.6054 65.3522 56.3564 65.2874C57.1074 65.2226 57.8114 64.8944 58.3439 64.3609L64.3655 58.3346C64.9004 57.8023 65.2295 57.0978 65.2946 56.346C65.3597 55.5941 65.1566 54.8436 64.7212 54.2272L61.1332 49.1104C61.0338 48.9698 60.9719 48.8062 60.9534 48.6351C60.9348 48.4639 60.9602 48.2909 61.0271 48.1322L61.0459 48.0854C61.1126 47.9316 61.2166 47.7967 61.3484 47.693C61.4802 47.5892 61.6357 47.5199 61.8009 47.4911L67.9629 46.4147C68.7047 46.2852 69.3771 45.8985 69.8621 45.3225C70.3471 44.7465 70.6136 44.018 70.6149 43.265V34.7334C70.6163 33.9776 70.3497 33.2457 69.8624 32.6679C69.3751 32.0901 68.6988 31.7037 67.9535 31.5775ZM68.4215 43.2619C68.4213 43.5008 68.3371 43.7319 68.1836 43.915C68.0302 44.098 67.8174 44.2214 67.5823 44.2634L61.4218 45.3399C60.8903 45.4314 60.3906 45.6563 59.9697 45.9936C59.5487 46.3308 59.2201 46.7693 59.0147 47.268L58.996 47.3164C58.793 47.8122 58.7184 48.3512 58.7792 48.8836C58.84 49.4159 59.0343 49.9242 59.3439 50.3615L62.9319 55.4783C63.0701 55.6749 63.1345 55.914 63.1137 56.1535C63.0928 56.3929 62.9881 56.6173 62.818 56.7871L56.7964 62.815C56.6268 62.985 56.4024 63.0895 56.1631 63.1098C55.9237 63.1301 55.685 63.0648 55.4891 62.9257L50.3755 59.3377C49.9374 59.0266 49.4276 58.8315 48.8938 58.7707C48.3599 58.7099 47.8194 58.7853 47.3225 58.9898L47.2773 59.007C46.778 59.212 46.3388 59.5403 46.0011 59.9613C45.6633 60.3823 45.4379 60.8822 45.346 61.4141L44.2696 67.573C44.2291 67.8095 44.1061 68.024 43.9225 68.1785C43.7389 68.3329 43.5065 68.4174 43.2665 68.4169H34.738C34.4981 68.4174 34.2657 68.3329 34.0821 68.1785C33.8985 68.024 33.7755 67.8095 33.7349 67.573L32.657 61.4125C32.5649 60.8826 32.3401 60.3845 32.0034 59.965C31.6668 59.5454 31.2294 59.218 30.7319 59.0132L30.6867 58.9961C30.1905 58.7918 29.6507 58.7162 29.1175 58.7765C28.5843 58.8368 28.075 59.0309 27.6369 59.3409L22.5185 62.9289C22.3227 63.0674 22.0841 63.1321 21.8451 63.1115C21.6061 63.0909 21.3821 62.9864 21.2128 62.8165L15.1803 56.784C15.0104 56.6145 14.9056 56.3905 14.8845 56.1514C14.8634 55.9123 14.9272 55.6734 15.0649 55.4767L18.6529 50.3646C18.95 49.942 19.1397 49.4535 19.2058 48.9411C19.2718 48.4288 19.2122 47.9081 19.0319 47.424C19.0191 47.3746 19.003 47.3261 18.9836 47.2789C18.7785 46.7794 18.4499 46.3401 18.0286 46.0023C17.6073 45.6645 17.1071 45.4393 16.5749 45.3476L10.4161 44.2713C10.1796 44.2301 9.96521 44.1067 9.8108 43.9229C9.65639 43.7391 9.57185 43.5067 9.5721 43.2666V34.735C9.57204 34.4946 9.65707 34.2621 9.81212 34.0785C9.96718 33.8948 10.1822 33.7721 10.4192 33.7319L16.5765 32.6539C17.109 32.5647 17.6101 32.3415 18.0325 32.0053C18.455 31.6691 18.7849 31.2309 18.9914 30.732C19.0108 30.6848 19.0269 30.6363 19.0397 30.5869C19.2204 30.1012 19.2798 29.5788 19.2126 29.065C19.1455 28.5511 18.9538 28.0615 18.6544 27.6385L15.0664 22.5202C14.9281 22.3241 14.8637 22.0855 14.8845 21.8465C14.9054 21.6075 15.0102 21.3836 15.1803 21.2144L21.2159 15.1772C21.3851 15.0078 21.6087 14.9034 21.8473 14.8826C22.0858 14.8618 22.3241 14.9258 22.5201 15.0634L27.6353 18.6514C28.0578 18.9487 28.5463 19.1388 29.0586 19.2051C29.5709 19.2714 30.0917 19.212 30.5759 19.032C30.6255 19.0197 30.674 19.0035 30.721 18.9836C31.22 18.7782 31.6589 18.4497 31.9966 18.0288C32.3343 17.6078 32.5599 17.1082 32.6523 16.5766L33.7287 10.4177C33.7692 10.1812 33.8922 9.96667 34.0758 9.81219C34.2594 9.6577 34.4918 9.57322 34.7318 9.57373H43.2603C43.4991 9.57334 43.7304 9.6571 43.9135 9.8103C44.0967 9.96351 44.22 10.1764 44.2618 10.4114L45.3398 16.5719C45.4314 17.103 45.6564 17.6022 45.9936 18.0227C46.3309 18.4431 46.7693 18.7711 47.2679 18.9758L47.2929 18.9868C47.7917 19.1974 48.3361 19.2773 48.8744 19.2189C49.4127 19.1605 49.9272 18.9657 50.3692 18.6529L55.486 15.0649C55.6824 14.9268 55.9213 14.8625 56.1604 14.8833C56.3996 14.9042 56.6238 15.0088 56.7933 15.1788L62.8165 21.2051C62.9868 21.3745 63.0915 21.5988 63.1121 21.8382C63.1327 22.0775 63.0677 22.3164 62.9288 22.5124L59.3408 27.626C59.0306 28.0636 58.836 28.5725 58.7749 29.1053C58.7138 29.6382 58.7883 30.1779 58.9913 30.6743L59.0101 30.7226C59.2151 31.2216 59.5435 31.6604 59.9646 31.9976C60.3856 32.3349 60.8854 32.5597 61.4171 32.6508L67.5776 33.7288C67.8141 33.7699 68.0284 33.8933 68.1829 34.0771C68.3373 34.2609 68.4218 34.4934 68.4215 34.7334V43.2619Z" fill="#1B1B1B"/>
</svg>
