<svg width="64" height="64" viewBox="0 0 78 78" fill="none" xmlns="http://www.w3.org/2000/svg">
<path d="M47.112 48.4427C47.36 46.9092 46.7828 44.9389 48.0714 44.0747C48.8046 43.5786 49.7765 43.7627 50.6626 43.7549C51.5486 43.7471 52.6266 43.2666 52.6079 42.3805C52.5985 41.9921 52.3676 41.6458 52.1399 41.3338C51.379 40.3195 50.4991 39.4003 49.5191 38.596C48.6033 39.0281 48.3194 40.4383 47.3179 40.5912C46.1261 40.7737 45.6019 39.064 44.5473 38.4899C44.1558 41.6738 45.2025 45.1776 44.3024 48.257C44.1901 48.6377 42.6176 48.736 42.3119 48.9887C41.9297 49.3007 41.3759 49.31 40.8891 49.2492C38.1498 48.9076 35.8597 47.112 33.7209 45.396C32.4885 44.4023 31.2359 43.3883 30.3513 42.0732C29.5886 40.934 29.1339 39.6167 29.0316 38.2496C28.5739 39.2412 28.3195 40.3144 28.2834 41.4058C28.2473 42.4973 28.4302 43.585 28.8214 44.6046C29.2125 45.6242 29.804 46.5551 30.5608 47.3424C31.3177 48.1297 32.2246 48.7573 33.228 49.1884C33.852 49.4551 34.5321 49.6564 34.9986 50.154C35.4167 50.5955 35.6085 51.2179 36.0375 51.6485C37.4837 53.0993 39.9968 51.3474 41.7518 51.4145C44.0747 51.5034 46.644 51.2881 47.112 48.4427Z" fill="#D9D9D9"/>
<path d="M57.823 66.8788L50.7811 59.8369L62.0771 50.4941L68.445 56.4424L57.823 66.8788Z" fill="#D9D9D9"/>
<path d="M9.55505 55.9167L15.9573 49.8342L25.9725 59.9805L20.1771 66.3515L9.55505 55.9167Z" fill="#D9D9D9"/>
<path d="M62.8539 49.3085C62.7525 49.2071 62.6321 49.1266 62.4996 49.0718C62.3671 49.0169 62.2251 48.9886 62.0817 48.9886C61.9383 48.9886 61.7963 49.0169 61.6638 49.0718C61.5313 49.1266 61.4109 49.2071 61.3095 49.3085L60.205 50.413C59.7651 49.803 58.982 48.6268 57.6466 46.3851C54.7466 41.5085 51.6063 38.6365 51.3333 38.3901L48.452 35.6538L48.427 35.6289C48.2055 34.9674 48.2305 34.1656 48.257 33.3216C48.2835 32.4777 48.3132 31.6181 48.1228 30.7367C47.75 29.0113 46.619 27.6526 45.6268 26.4545C45.4979 26.2995 45.37 26.1435 45.2431 25.9865C44.4631 25.0411 43.7096 22.4375 43.7049 20.8869H44.2244C44.514 20.8869 44.7918 20.7718 44.9966 20.567C45.2014 20.3622 45.3164 20.0845 45.3164 19.7949V12.0261C45.3171 11.8826 45.2896 11.7405 45.2354 11.6077C45.1812 11.475 45.1013 11.3542 45.0004 11.2523C44.7967 11.0465 44.5195 10.93 44.2299 10.9286C44.0865 10.9279 43.9443 10.9554 43.8116 11.0096C43.6788 11.0638 43.558 11.1437 43.4561 11.2446C43.2503 11.4483 43.1338 11.7255 43.1324 12.0151V18.7075H30.42V11.8935C30.42 11.6038 30.3049 11.3261 30.1001 11.1213C29.8953 10.9165 29.6176 10.8015 29.328 10.8015C29.0383 10.8015 28.7606 10.9165 28.5558 11.1213C28.351 11.3261 28.236 11.6038 28.236 11.8935V19.7995C28.236 20.0891 28.351 20.3669 28.5558 20.5717C28.7606 20.7765 29.0383 20.8915 29.328 20.8915H30.888C30.7694 21.6341 30.4917 23.0194 29.849 25.5481C28.445 31.0487 28.6416 35.2997 28.6618 35.6663L28.6696 35.958L26.6635 37.8643C26.3905 38.1093 23.2502 40.9843 20.3502 45.8578C19.0148 48.1011 18.2317 49.2757 17.7918 49.8857L16.692 48.7812C16.5906 48.6798 16.4702 48.5994 16.3377 48.5445C16.2052 48.4896 16.0632 48.4613 15.9198 48.4613C15.7764 48.4613 15.6343 48.4896 15.5018 48.5445C15.3694 48.5994 15.249 48.6798 15.1476 48.7812L9.55496 54.3723C9.35016 54.5771 9.23511 54.8548 9.23511 55.1445C9.23511 55.4341 9.35016 55.7119 9.55496 55.9167C9.75976 56.1215 10.0375 56.2365 10.3272 56.2365C10.6168 56.2365 10.8946 56.1215 11.0994 55.9167V55.9089L15.912 51.0978L24.896 60.0819L20.1708 64.8071V64.8149C19.977 65.0225 19.8717 65.2974 19.8772 65.5813C19.8827 65.8652 19.9986 66.1359 20.2003 66.3358C20.4021 66.5356 20.6737 66.6491 20.9577 66.652C21.2416 66.655 21.5156 66.5472 21.7214 66.3515L27.2188 60.8541C27.3203 60.7527 27.4007 60.6323 27.4556 60.4998C27.5105 60.3673 27.5387 60.2253 27.5387 60.0819C27.5387 59.9384 27.5105 59.7964 27.4556 59.6639C27.4007 59.5314 27.3203 59.4111 27.2188 59.3097L26.8522 58.9431C27.952 57.8511 30.3295 56.5453 31.5447 56.4237L32.1438 56.3675C33.696 56.2255 35.4572 56.0649 36.9392 55.1086C37.6076 54.6482 38.216 54.1064 38.7504 53.4955C38.8783 53.6281 39.0062 53.7654 39.1357 53.9027C39.7098 54.5142 40.301 55.1507 41.0607 55.6359C42.5427 56.5921 44.304 56.7528 45.8562 56.8948L46.4552 56.9509C47.6704 57.0726 50.0432 58.3768 51.1477 59.4703L50.7811 59.8369C50.6797 59.9383 50.5992 60.0587 50.5443 60.1912C50.4895 60.3237 50.4612 60.4657 50.4612 60.6091C50.4612 60.7525 50.4895 60.8946 50.5443 61.0271C50.5992 61.1595 50.6797 61.2799 50.7811 61.3813L56.2785 66.8788C56.4825 67.0844 56.7598 67.2006 57.0494 67.2018C57.3391 67.2029 57.6173 67.089 57.8229 66.885C58.0286 66.681 58.1447 66.4037 58.1459 66.1141C58.1471 65.8245 58.0331 65.5462 57.8292 65.3406L53.1039 60.6154L62.088 51.6251L66.899 56.4361H66.9068C67.1116 56.6409 67.3894 56.756 67.679 56.756C67.9686 56.756 68.2464 56.6409 68.4512 56.4361C68.656 56.2313 68.7711 55.9536 68.7711 55.6639C68.7711 55.3743 68.656 55.0965 68.4512 54.8917L62.8539 49.3085ZM42.2432 53.7997C41.7112 53.4565 41.2339 52.948 40.73 52.4098L40.354 52.012C40.5355 51.8945 40.731 51.8001 40.9359 51.7312C41.251 51.6433 41.573 51.5828 41.8984 51.5502C42.3403 51.5047 42.7772 51.4201 43.2042 51.2975C44.2962 50.959 45.2992 50.0214 45.3289 48.8218C45.3616 48.7531 45.3928 48.6845 45.4209 48.6127C45.7329 47.8203 45.7438 47.0044 45.7532 46.3476C45.7672 45.2166 45.7704 44.0778 45.7688 42.939C45.9466 42.7581 46.126 42.5755 46.3023 42.393C46.516 42.1746 46.7532 41.925 46.9809 41.6505L47.0043 41.6598C47.3862 41.8049 47.7978 41.854 48.2031 41.8028C48.6083 41.7517 48.9949 41.6019 49.3287 41.3665C49.7044 41.0864 49.9814 40.6942 50.1196 40.2465C52.3048 42.4141 54.2037 44.8524 55.77 47.502C57.1864 49.8826 58.0647 51.2164 58.645 51.9714L52.6905 57.9259C51.2054 56.4517 48.4052 54.951 46.6736 54.7779L46.0496 54.7201C44.6269 54.5891 43.2759 54.4659 42.2432 53.7997ZM31.9472 54.1929L31.3232 54.2506C29.5916 54.4237 26.7914 55.9245 25.3063 57.4002L19.3518 51.4457C19.9321 50.6891 20.8104 49.3553 22.2268 46.9747C25.0146 42.2869 28.1002 39.5101 28.1299 39.4867L28.1564 39.4633L28.7445 38.9049L28.7632 39.6427C28.7913 40.8049 28.8288 42.2511 29.523 43.5209C30.2562 44.8656 31.4714 45.4927 32.5774 45.5489C32.8232 46.2166 33.2318 46.8123 33.7662 47.2821C34.3333 47.7678 35.048 48.0476 35.7942 48.0761C36.0126 48.8399 36.4716 49.5128 37.103 49.9949C37.5398 50.3171 38.0504 50.5246 38.5881 50.5986C38.1178 50.9969 37.6753 51.4269 37.2637 51.8856C36.7598 52.4238 36.2824 52.9324 35.7505 53.2756C34.724 53.9386 33.3746 54.0618 31.9456 54.1929H31.9472ZM31.9706 26.0863C32.6523 23.4016 32.9752 21.8369 33.0985 20.8915H41.5225C41.5225 22.9851 42.4507 26.0271 43.5505 27.3733L43.9467 27.8523C44.864 28.9552 45.7314 29.9973 45.9903 31.1969C46.1245 31.8209 46.1026 32.5135 46.0777 33.2514C46.0402 34.4121 45.9981 35.7271 46.6174 36.9424C46.8372 37.3475 47.0941 37.7314 47.385 38.089C47.5861 38.334 47.7671 38.5949 47.9263 38.869C48.101 39.2013 48.0823 39.546 48.0261 39.61C47.9287 39.6376 47.8248 39.6316 47.7313 39.5928C47.4557 39.4694 47.2079 39.2917 47.0028 39.0702C46.3903 38.482 45.879 37.7968 45.4896 37.0422C45.3705 36.8059 45.1697 36.6208 44.9245 36.5214C44.6792 36.4221 44.4063 36.4151 44.1563 36.5019C43.9063 36.5886 43.6963 36.7632 43.5654 36.9931C43.4344 37.2231 43.3915 37.4928 43.4444 37.752C43.5356 38.337 43.5732 38.9292 43.5567 39.5211C43.5567 39.6771 43.5567 39.844 43.5567 40.0062C43.5895 42.0966 43.5926 44.2182 43.5645 46.3133C43.5567 46.8406 43.5489 47.3866 43.3836 47.8078C43.2759 48.0808 43.0716 48.3039 42.8968 48.3257C42.641 48.3616 42.2541 48.0137 41.9203 47.4771V38.6724C41.9203 38.3828 41.8052 38.105 41.6004 37.9003C41.3957 37.6955 41.1179 37.5804 40.8283 37.5804C40.5387 37.5804 40.2609 37.6955 40.0561 37.9003C39.8513 38.105 39.7363 38.3828 39.7363 38.6724V47.7204C39.7359 47.7901 39.7427 47.8596 39.7566 47.9279C39.7183 48.0651 39.6401 48.1878 39.5319 48.2805C39.2574 48.5051 38.741 48.4833 38.404 48.2337C38.2198 48.079 38.0714 47.8862 37.969 47.6686C37.8667 47.451 37.8128 47.2137 37.8112 46.9732C37.8167 46.9297 37.8198 46.8859 37.8206 46.8421V38.844C37.8206 38.5544 37.7056 38.2766 37.5008 38.0719C37.296 37.8671 37.0182 37.752 36.7286 37.752C36.439 37.752 36.1612 37.8671 35.9564 38.0719C35.7517 38.2766 35.6366 38.5544 35.6366 38.844V45.85C35.4704 45.8055 35.316 45.7251 35.1842 45.6144C34.7724 45.2634 34.5602 44.6784 34.4526 44.226V37.4088C34.4526 37.1192 34.3375 36.8414 34.1327 36.6367C33.9279 36.4319 33.6502 36.3168 33.3606 36.3168C33.0709 36.3168 32.7932 36.4319 32.5884 36.6367C32.3836 36.8414 32.2686 37.1192 32.2686 37.4088V43.2588C31.9184 43.0859 31.6286 42.8114 31.4371 42.471C30.9972 41.6629 30.9691 40.5585 30.9441 39.5835L30.8427 35.5945C30.8435 35.5826 30.8435 35.5706 30.8427 35.5587C30.8443 35.5181 30.6274 31.3716 31.969 26.0863H31.9706Z" fill="#1B1B1B"/>
</svg>
