<svg width="16" height="32" viewBox="0 0 16 32" fill="none" xmlns="http://www.w3.org/2000/svg">
<path d="M9.69513 7.60463C9.69513 7.93213 9.69513 8.99957 9.69513 10.5161H14.9091L14.3438 15.164H9.69513C9.69513 22.332 9.69513 31.9374 9.69513 31.9374H3.52476C3.52476 31.9374 3.52476 22.4591 3.52476 15.164H0.30957V10.5161H3.52476C3.52476 8.67282 3.52476 7.36213 3.52476 6.9972C3.52476 5.25845 3.39376 4.43345 4.13257 3.08607C4.87176 1.73876 6.95676 -0.0421153 10.5629 0.000759676C14.17 0.0451972 15.6904 0.392197 15.6904 0.392197L14.9091 5.34576C14.9091 5.34576 12.6058 4.73757 11.4753 4.95432C10.3462 5.17113 9.69513 5.86663 9.69513 7.60463Z" fill="#48F499"/>
</svg>
