<svg width="62" height="48" viewBox="0 0 62 48" fill="none" xmlns="http://www.w3.org/2000/svg">
<g clip-path="url(#clip0_154_98)">
<path d="M10.6324 0.914111C10.6736 0.852032 10.7027 0.777299 10.767 0.735001C11.2428 0.702042 11.7131 0.786637 12.1789 0.87126C12.9212 1.04807 13.6489 1.26541 14.3554 1.55942C15.0414 1.84494 15.7029 2.19854 16.3367 2.58602C16.759 2.8442 17.1699 3.12088 17.5696 3.41274C18.6695 4.17971 19.6628 5.08619 20.6171 6.02456C20.7012 6.09929 20.7852 6.24157 20.9171 6.17455C21.823 5.83105 22.7466 5.5343 23.683 5.28581C24.9152 4.95883 26.1407 4.70133 27.4126 4.60702C28.3551 4.53711 29.3014 4.52105 30.2457 4.55893C30.6588 4.57551 31.0938 4.65563 31.4978 4.58284C31.9413 4.50293 32.4032 4.52719 32.8534 4.52801C33.9813 4.51428 35.0999 4.68952 36.2069 4.89117C37.5189 5.15598 38.8149 5.50704 40.0754 5.9603C40.3643 6.04489 40.6335 6.1982 40.9319 6.24928C41.3005 5.93118 41.617 5.55428 41.9906 5.2395C42.407 4.88515 42.7954 4.49892 43.2349 4.17147C44.1101 3.44957 45.0446 2.798 46.0396 2.25078C47.0384 1.67721 48.1135 1.23661 49.2317 0.959172C49.825 0.829516 50.4282 0.694362 51.0392 0.736659C51.7072 1.72227 52.2313 2.81668 52.5192 3.97529C52.6112 4.34567 52.6916 4.71203 52.7374 5.09088C52.785 5.48531 52.8154 5.88181 52.8285 6.2789C52.8413 6.66804 52.8421 7.05863 52.8179 7.44722C52.7699 8.21789 52.715 8.97694 52.5407 9.73343C52.4966 9.92529 52.4489 10.1182 52.4018 10.3081C52.3233 10.6242 52.2257 10.935 52.1418 11.2487C51.6144 12.9513 50.8705 14.5874 49.9442 16.1097C49.8833 16.18 49.9267 16.2679 49.9514 16.3438C50.2733 17.3469 50.6722 18.3391 51.2831 19.2039C51.5858 19.6605 51.9886 20.0384 52.3901 20.406C53.1934 21.0537 54.2416 21.3779 55.269 21.3438C55.8151 21.3421 56.3551 21.2224 56.8798 21.0768C57.5303 20.9015 58.1132 20.5554 58.7055 20.245C58.8571 20.1676 59.0054 20.0472 59.1873 20.0654C59.2742 20.0741 59.294 20.5547 59.3035 20.62C59.4046 21.318 59.5446 22.0188 59.5886 22.7233C59.6164 23.1694 59.6169 23.6172 59.5898 24.0633C59.4994 25.5533 59.1341 27.025 58.5222 28.3864C58.3415 28.7884 58.14 29.1809 57.9204 29.5629C57.8391 29.7002 57.7528 29.837 57.6973 29.9881C57.9489 29.9063 58.1621 29.7409 58.3972 29.6222C59.1543 29.2278 59.8943 28.8003 60.6519 28.4086C60.4959 28.8899 60.2234 29.3239 60.0025 29.7772C59.5751 30.6672 59.1164 31.5418 58.6724 32.4236C57.6489 34.3162 56.3853 36.0875 54.8587 37.6078C52.849 39.646 50.3893 41.2458 47.6958 42.2209C47.5431 42.2786 47.3793 42.3149 47.2403 42.4033C47.2337 42.4231 47.2206 42.4616 47.214 42.4814C47.5015 42.4939 47.7775 42.5059 48.0628 42.5452C48.9534 42.6679 49.8496 42.7577 50.7445 42.855C50.7735 42.8581 50.8043 42.862 50.8268 42.8805C50.9503 42.9819 50.6378 43.0275 50.5861 43.0427C50.4415 43.0854 50.298 43.1317 50.155 43.1792C49.8687 43.2742 49.5842 43.3746 49.2957 43.4626C48.1502 43.829 47.0102 44.213 45.8668 44.5855C45.263 44.7696 44.6493 44.9273 44.023 45.0064C42.8627 45.2552 41.6699 45.1981 40.4909 45.1998C40.1238 45.1882 39.7541 45.2085 39.3921 45.141C38.9295 45.1272 38.4751 45.036 38.0158 45.0064C37.8433 44.9685 37.7637 45.1443 37.6598 45.2432C37.2966 45.6146 36.9456 46.009 36.505 46.2925C36.188 46.5244 35.8408 46.7095 35.4831 46.8705C35.4067 46.9034 35.2979 46.9298 35.2348 46.8606C34.9557 46.6123 34.6914 46.3469 34.3953 46.1195C34.0431 46.3524 33.7086 46.6189 33.3157 46.7831C32.8028 46.9976 32.2975 47.1562 31.7438 47.2285C31.186 47.3013 30.6189 47.3013 30.0611 47.2297C29.4534 47.1518 28.8711 46.9924 28.325 46.7138C28.0005 46.5483 27.7129 46.3222 27.4136 46.1167C27.0922 46.3409 26.8312 46.6381 26.5279 46.8842C26.3725 46.9518 26.2247 46.8177 26.0868 46.7617C25.2726 46.3903 24.5803 45.7887 24.0112 45.1047C23.9579 45.0558 23.9211 44.9773 23.8458 44.9646C23.5112 44.9531 23.1898 45.075 22.8563 45.0816C22.3784 45.1124 21.9059 45.1997 21.4257 45.1948C20.6016 45.2058 19.7775 45.2074 18.9534 45.1893C17.875 45.097 16.7987 44.9212 15.7637 44.5976C14.0902 44.0587 12.4293 43.484 10.7482 42.972C10.7455 42.9527 10.7394 42.9137 10.7366 42.8945C11.3299 42.805 11.9255 42.7329 12.5213 42.663C13.0977 42.5953 13.6708 42.5057 14.2497 42.4868C14.2906 42.4855 14.3316 42.4838 14.3725 42.4813C14.3665 42.4615 14.3539 42.4225 14.3473 42.4028C13.8138 42.1742 13.2556 41.9962 12.7238 41.7589C10.908 40.9425 9.20443 39.8651 7.71675 38.5415C6.95912 37.874 6.25755 37.146 5.59664 36.3835C4.84562 35.5039 4.18579 34.5512 3.57213 33.5722C2.72441 32.1795 2.05856 30.6873 1.30808 29.2418C1.17569 28.9682 1.01744 28.7023 0.935059 28.4078C1.71299 28.8155 2.48051 29.2468 3.25734 29.6593C3.46775 29.7687 3.66115 29.9159 3.88971 29.9879C3.72599 29.6204 3.4914 29.2891 3.32274 28.9232C2.98596 28.2743 2.72388 27.5898 2.5014 26.8942C2.32785 26.3517 2.18272 25.8022 2.09198 25.2391C2.04506 24.9478 2.02854 24.6443 2.00974 24.35C1.97914 23.8703 1.98708 23.3898 1.9943 22.9095C2.00747 21.947 2.26184 21.013 2.39976 20.0653C2.46512 20.0658 2.53436 20.0647 2.59589 20.0939C3.19142 20.3971 3.76555 20.7526 4.39789 20.9789C5.44395 21.336 6.59546 21.4888 7.67288 21.1817C8.34754 20.9877 8.99143 20.6493 9.48259 20.1416C10.5742 19.1368 11.189 17.7408 11.6329 16.352C11.6719 16.2009 11.7719 16.0362 11.7098 15.8823C10.394 13.6298 9.4227 11.1514 9.05077 8.56173C8.95353 7.4069 8.93485 6.24218 9.05022 5.08834C9.19198 4.16865 9.43864 3.26162 9.82103 2.41224C10.0463 1.88919 10.3429 1.40245 10.633 0.914023M49.3407 4.50697C48.7067 4.82452 48.0831 5.16735 47.5079 5.58323C46.7887 6.07989 46.1701 6.70344 45.5757 7.3402C44.8593 8.1698 44.2318 9.07463 43.4792 9.87292C43.3819 9.89655 43.3177 9.99763 43.2369 10.0542C42.9573 10.3168 42.5765 10.4674 42.1936 10.4602C41.7689 10.4091 41.3706 10.208 41.0454 9.935C40.696 9.6169 40.368 9.26418 40.14 8.8472C40.3778 8.46702 40.7058 8.15168 40.991 7.80664C41.0591 7.70939 41.2019 7.63302 41.1844 7.49898C38.8599 6.53809 36.4051 5.86232 33.8967 5.63158C32.9072 5.56455 31.8952 5.53488 30.9265 5.7843C30.4563 5.70518 29.9827 5.60246 29.5014 5.61345C28.9163 5.62006 28.3262 5.57994 27.7466 5.6728C27.4747 5.68819 27.2016 5.68819 26.9341 5.74038C24.7612 6.0332 22.6476 6.67709 20.6194 7.49624C20.5942 7.59183 20.6749 7.66162 20.7282 7.7292C21.0199 8.05937 21.3309 8.37529 21.594 8.72964C21.7122 8.87853 21.5287 9.02302 21.4562 9.14718C21.0166 9.76799 20.4068 10.374 19.6129 10.4586C19.2185 10.4701 18.8114 10.3185 18.5383 10.0289C18.4696 9.9773 18.4153 9.88555 18.3284 9.87182C17.4274 8.96257 16.7522 7.8583 15.8529 6.9462C14.8673 5.90456 13.6723 5.05739 12.3588 4.48271C12.1017 4.84367 12.0435 5.3035 11.9545 5.72819C11.8375 6.52262 11.8891 7.33077 11.9017 8.1307C12.0693 10.0734 12.5363 11.984 13.195 13.8176C13.3401 14.1862 13.4423 14.579 13.6461 14.9208C13.6422 15.1273 13.7362 15.3801 13.568 15.5465C13.451 15.6954 13.2318 15.6833 13.0978 15.7982C12.7187 17.2101 12.1968 18.6105 11.3491 19.8126C10.7376 20.6983 9.9124 21.4454 8.93281 21.9014C8.43892 22.1585 7.88841 22.2646 7.34835 22.3772C6.82257 22.4129 6.29406 22.403 5.76828 22.3843C5.13262 22.291 4.49863 22.1553 3.90198 21.9113C3.73882 21.847 3.58609 21.7558 3.41522 21.7135C3.24766 22.4107 3.27128 23.1326 3.25371 23.8441C3.21746 24.5374 3.42787 25.2088 3.56026 25.8818L3.58554 25.84C3.60093 26.0296 3.67069 26.2086 3.72509 26.3905C4.20909 27.9371 5.00573 29.3705 5.96717 30.6697C6.26878 31.1098 6.58193 31.5427 6.93137 31.9465C6.91435 31.974 6.88028 32.0289 6.86269 32.0564C6.23692 32.1097 5.63533 31.8998 5.04913 31.7108C4.59532 31.5509 4.1624 31.3378 3.74158 31.1065C3.8075 31.3543 3.96133 31.5647 4.07891 31.79C4.65688 32.8651 5.3211 33.8947 6.07047 34.8584C6.34627 35.221 6.65556 35.5556 6.94292 35.9094C9.04984 38.2701 11.7475 40.1243 14.7554 41.1303C15.9976 41.5687 17.2953 41.8664 18.6111 41.9555C18.6116 42.0747 18.5078 42.1461 18.4314 42.223C18.2204 42.4202 17.9749 42.5741 17.7353 42.7339C17.3007 43.0273 16.7904 43.1844 16.2827 43.2943C16.2855 43.3196 16.291 43.3702 16.2937 43.3954C17.8282 43.8613 19.4445 43.9767 21.041 43.9333C21.4821 43.9454 21.9178 43.8684 22.3579 43.8547C22.5914 43.8184 22.8336 43.8338 23.0622 43.7663C23.055 43.7003 23.0358 43.6377 23.0084 43.5806C22.5183 42.6191 22.2238 41.5544 22.1486 40.4798C21.8173 40.4436 21.4838 40.476 21.152 40.4628C20.5427 40.4655 19.9378 40.3886 19.3351 40.3095C18.3687 40.1524 17.4062 39.9425 16.4887 39.5964C16.2442 39.4953 15.964 39.4447 15.7674 39.2574C16.4547 39.2706 17.1255 38.9717 17.6067 38.4872C17.61 38.4575 17.6166 38.3987 17.6194 38.3696C17.5848 38.358 17.515 38.335 17.4804 38.3234C15.6927 37.3801 14.0532 36.1621 12.6133 34.7453C11.8161 33.9273 11.0552 33.0724 10.3789 32.1516C9.14767 30.4617 8.11645 28.6119 7.42852 26.6341C7.5829 26.5835 7.75047 26.6253 7.9109 26.6165C8.852 26.5857 9.77774 26.338 10.6343 25.9506C11.566 25.5155 12.4539 24.9573 13.1669 24.2101C13.7718 23.6283 14.2641 22.9042 14.4789 22.0862C14.5739 21.7444 14.5217 21.3884 14.5454 21.0412C14.9464 20.9478 15.3579 20.9127 15.7639 20.8517C16.5518 20.8352 17.3473 20.7912 18.1274 20.9192C19.1647 21.0681 20.1734 21.3988 21.1144 21.8576C22.0803 22.3598 22.9994 22.9745 23.762 23.7557C23.8268 23.8068 23.8828 23.9101 23.9834 23.8805C23.8895 23.4173 23.8938 22.9415 23.9164 22.4724C23.9186 22.2372 24.0048 22.0153 24.1098 21.8087C24.146 21.734 24.1867 21.6335 24.2905 21.6505C24.685 22.6262 25.2503 23.5327 25.9337 24.3354C26.4699 24.9238 27.0441 25.5072 27.7665 25.8654C27.9247 25.9357 28.0835 26.05 28.2665 26.0193C28.8362 25.0276 29.1972 23.9349 29.5213 22.8432C29.8372 21.712 30.0993 20.5648 30.308 19.4094L30.3267 19.4555C30.3761 19.2083 30.4042 18.9577 30.4487 18.71C30.5162 18.1655 30.658 17.632 30.6992 17.0843C30.736 16.8464 30.7926 16.6113 30.7997 16.3701C30.8162 16.2591 30.8096 16.1097 30.9338 16.0619C30.9882 16.2151 31.0063 16.3778 31.0118 16.5404C31.1184 17.3667 31.2612 18.188 31.4024 19.0094C31.7491 20.8438 32.1474 22.6794 32.7984 24.4336C33.0122 24.9758 33.2215 25.529 33.5363 26.0219C33.6236 26.0274 33.7143 26.018 33.795 25.9796C34.184 25.812 34.5439 25.5813 34.8707 25.3132C35.6745 24.6396 36.3437 23.8161 36.8782 22.9161C37.1084 22.5063 37.3436 22.092 37.4705 21.636C37.4925 21.6322 37.537 21.6234 37.5589 21.619C37.7238 21.813 37.8034 22.0668 37.8633 22.3113C37.9336 22.8337 37.9023 23.3661 37.8183 23.8853C37.9155 23.8974 37.971 23.8023 38.038 23.7501C39.6967 22.097 41.946 21.0422 44.2803 20.8455C45.278 20.8263 46.2998 20.7867 47.2667 21.0718C47.27 21.4147 47.2326 21.7657 47.3238 22.1014C47.5001 22.764 47.8551 23.3722 48.3144 23.8782C48.9714 24.6506 49.8093 25.2527 50.7026 25.7241C51.6854 26.245 52.7798 26.5801 53.8949 26.6163C54.0493 26.6317 54.2246 26.5707 54.3663 26.6416C54.2114 27.1245 54.0109 27.5915 53.807 28.0552C52.9197 30.0314 51.7397 31.8745 50.3243 33.5134C48.9206 35.1594 47.2471 36.572 45.4066 37.7059C45.0627 37.9229 44.6935 38.0982 44.3551 38.3218C44.2782 38.291 44.2117 38.3663 44.1529 38.4031C44.3271 38.6783 44.6237 38.841 44.8995 38.9981C45.2424 39.1992 45.6467 39.2469 46.0373 39.2585C45.9148 39.3794 45.7478 39.4294 45.5923 39.4914C44.2386 40.0013 42.8118 40.3194 41.3696 40.4309C40.8009 40.4936 40.2262 40.4381 39.6571 40.4787C39.5791 41.4561 39.322 42.4208 38.9171 43.3136C38.855 43.4718 38.7319 43.6202 38.7506 43.7998C39.3654 43.8581 39.9829 43.863 40.5971 43.9295C41.9025 43.9603 43.2216 43.9372 44.499 43.6383C44.8473 43.5477 45.2182 43.5147 45.5429 43.3504C45.5209 43.3339 45.478 43.3004 45.4566 43.284C44.6946 43.1301 43.9853 42.7582 43.3991 42.2517C43.3145 42.166 43.1827 42.0923 43.1947 41.9556C44.8742 41.8495 46.5058 41.3688 48.0639 40.7518C50.1549 39.8926 52.0821 38.6367 53.7127 37.0707C54.356 36.5021 54.9081 35.8428 55.463 35.1907C56.2146 34.2353 56.9151 33.2365 57.5018 32.1705C57.6853 31.8145 57.9161 31.481 58.0644 31.108C57.6639 31.3124 57.2667 31.5234 56.842 31.6761C56.1997 31.9255 55.5124 32.1184 54.8169 32.0524C54.8109 32.0288 54.7982 31.9816 54.7916 31.9579C54.8559 31.8876 54.9246 31.8211 54.9872 31.7497C55.663 30.897 56.3234 30.0273 56.8766 29.089C57.4601 28.0792 57.9194 26.9985 58.2413 25.8777C58.3232 25.709 58.3687 25.5261 58.4094 25.3437C58.5479 24.7141 58.6682 24.0652 58.5621 23.4202C58.5204 23.1972 58.544 22.9692 58.5171 22.745C58.466 22.4011 58.5154 22.0402 58.377 21.7127C58.2182 21.7506 58.0764 21.8347 57.927 21.8962C57.3403 22.1533 56.703 22.2544 56.0794 22.3781C55.5888 22.4105 55.0965 22.4011 54.6065 22.3896C53.5429 22.266 52.5117 21.843 51.682 21.1628C50.8871 20.5085 50.28 19.6575 49.8047 18.751C49.3026 17.8214 48.9845 16.8067 48.6983 15.7948C48.5104 15.6987 48.2642 15.6608 48.1675 15.4481C48.0516 15.2751 48.1368 15.0735 48.1829 14.8938C48.7675 13.5099 49.2059 12.0639 49.524 10.5966C49.7311 9.52911 49.9201 8.45174 49.9179 7.36115C49.9377 6.38543 49.9009 5.36741 49.4603 4.47573C49.4169 4.47512 49.3768 4.48556 49.3399 4.50697M39.4827 29.3205C38.5586 29.6133 37.6235 29.9402 36.839 30.5259C36.7879 30.5528 36.7538 30.6132 36.7868 30.6687C37.2456 30.9967 37.7191 31.3241 38.2625 31.4944C38.7377 31.6296 39.2596 31.6026 39.7195 31.4197C40.1755 31.2362 40.643 31.0643 41.0462 30.7758C41.9912 30.1259 42.8428 29.3535 43.6899 28.5838C43.6998 28.548 43.7201 28.4772 43.7306 28.4414C42.2977 28.6409 40.8721 28.9139 39.4828 29.3205M18.0956 28.4673C18.0395 28.5898 18.178 28.6474 18.2494 28.72C19.0878 29.4628 19.9157 30.2264 20.8519 30.8472C21.2145 31.0955 21.6342 31.2362 22.0364 31.406C22.6248 31.6499 23.317 31.6389 23.8895 31.356C24.2839 31.1637 24.6685 30.9384 25.002 30.6522C24.9921 30.5483 24.8982 30.4939 24.8251 30.4374C24.4515 30.1638 24.0301 29.9649 23.606 29.7836C22.3534 29.2655 21.0271 28.9551 19.698 28.7057C19.1662 28.6134 18.6349 28.5019 18.0954 28.4673M29.838 29.2595C29.1908 29.3864 28.5519 29.5869 27.9723 29.9056C28.1442 30.1346 28.4178 30.2781 28.5425 30.5494C28.2058 30.739 27.9245 31.0087 27.6525 31.279C26.529 32.3597 25.8258 33.7953 25.3324 35.2551C25.1918 35.7457 25.0198 36.2325 24.9583 36.7418C24.8995 36.7374 24.8226 36.739 24.8094 36.6665C24.6028 36.1506 24.4501 35.615 24.3089 35.0782C24.249 34.9183 24.2457 34.7486 24.2342 34.5815C24.2128 34.5843 24.1699 34.5892 24.1485 34.592C24.0617 34.7068 24.0414 34.8546 23.9919 34.9876C23.5238 36.4121 23.1601 37.8878 23.1129 39.3916C23.1371 39.6855 23.1568 39.9805 23.2107 40.2706C23.1563 40.8073 23.2991 41.3337 23.4354 41.8479C23.87 43.3719 24.8061 44.7866 26.1527 45.648C26.2137 45.6946 26.3103 45.726 26.3659 45.6518C27.1163 44.9744 27.9816 44.4217 28.9205 44.0448C29.5815 43.8069 30.2748 43.6075 30.9841 43.6421C31.3978 43.6251 31.8021 43.7267 32.2004 43.8273C33.3552 44.1454 34.4205 44.7574 35.3099 45.5557C35.395 45.6161 35.4928 45.7606 35.6066 45.6645C37.0119 44.7948 37.9646 43.3147 38.3876 41.7364C38.5112 41.259 38.6425 40.7684 38.587 40.2706C38.7046 39.5746 38.6722 38.8593 38.5783 38.162C38.4145 37.0605 38.1365 35.9777 37.7794 34.924C37.7399 34.8114 37.7322 34.6757 37.6228 34.6065C37.4806 34.985 37.419 35.3904 37.2937 35.7761C37.2102 36.053 37.0894 36.3189 37.0306 36.6035C37.0009 36.6128 36.9416 36.631 36.9119 36.6398C36.8702 36.609 36.8301 36.5782 36.7916 36.5469C36.7856 36.392 36.7372 36.2442 36.7026 36.0953C36.4191 35.0185 36.0313 33.9625 35.4643 33.0012C34.9314 32.0579 34.2067 31.2168 33.326 30.5828C33.504 30.34 33.7535 30.1653 33.9474 29.9384C33.9194 29.8433 33.7908 29.828 33.7167 29.7791C33.0332 29.4527 32.2915 29.2483 31.5356 29.1923C30.9708 29.1011 30.3989 29.178 29.8379 29.2598L29.838 29.2595Z" fill="black"/>
<path d="M10.6324 0.914111C10.6736 0.852032 10.7027 0.777299 10.767 0.735001C11.2428 0.702042 11.7131 0.786637 12.1789 0.87126C12.9212 1.04807 13.6489 1.26541 14.3554 1.55942C15.0414 1.84494 15.7029 2.19854 16.3367 2.58602C16.759 2.8442 17.1699 3.12088 17.5696 3.41274C18.6695 4.17971 19.6628 5.08619 20.6171 6.02456C20.7012 6.09929 20.7852 6.24157 20.9171 6.17455C21.823 5.83105 22.7466 5.5343 23.683 5.28581C24.9152 4.95883 26.1407 4.70133 27.4126 4.60702C28.3551 4.53711 29.3014 4.52105 30.2457 4.55893C30.6588 4.57551 31.0938 4.65563 31.4978 4.58284C31.9413 4.50293 32.4032 4.52719 32.8534 4.52801C33.9813 4.51428 35.0999 4.68952 36.2069 4.89117C37.5189 5.15598 38.8149 5.50704 40.0754 5.9603C40.3643 6.04489 40.6335 6.1982 40.9319 6.24928C41.3005 5.93118 41.617 5.55428 41.9906 5.2395C42.407 4.88515 42.7954 4.49892 43.2349 4.17147C44.1101 3.44957 45.0446 2.798 46.0396 2.25078C47.0384 1.67721 48.1135 1.23661 49.2317 0.959172C49.825 0.829516 50.4282 0.694362 51.0392 0.736659C51.7072 1.72227 52.2313 2.81668 52.5192 3.97529C52.6112 4.34567 52.6916 4.71203 52.7374 5.09088C52.7851 5.48531 52.8154 5.88181 52.8285 6.2789C52.8413 6.66804 52.8421 7.05863 52.8179 7.44722C52.7699 8.21789 52.715 8.97694 52.5407 9.73343C52.4966 9.92529 52.4489 10.1182 52.4018 10.3081C52.3233 10.6242 52.2257 10.935 52.1418 11.2487C51.6144 12.9513 50.8705 14.5874 49.9442 16.1097C49.8833 16.18 49.9267 16.2679 49.9514 16.3438C50.2733 17.3469 50.6722 18.3391 51.2831 19.2039C51.5858 19.6605 51.9886 20.0384 52.3901 20.406C53.1934 21.0537 54.2416 21.3779 55.269 21.3438C55.8151 21.3421 56.3551 21.2224 56.8798 21.0768C57.5303 20.9015 58.1132 20.5554 58.7055 20.245C58.8571 20.1676 59.0054 20.0472 59.1873 20.0654C59.2742 20.0741 59.294 20.5547 59.3035 20.62C59.4046 21.318 59.5446 22.0188 59.5886 22.7233C59.6164 23.1694 59.6169 23.6172 59.5898 24.0633C59.4994 25.5533 59.1341 27.025 58.5222 28.3864C58.3415 28.7884 58.14 29.1809 57.9204 29.5629C57.8391 29.7002 57.7528 29.837 57.6973 29.9881C57.9489 29.9063 58.1621 29.7409 58.3972 29.6222C59.1543 29.2278 59.8943 28.8003 60.6519 28.4086C60.4959 28.8899 60.2234 29.3239 60.0025 29.7772C59.5751 30.6672 59.1164 31.5418 58.6724 32.4236C57.6489 34.3162 56.3853 36.0875 54.8587 37.6078C52.849 39.646 50.3893 41.2458 47.6958 42.2209C47.5431 42.2786 47.3793 42.3149 47.2403 42.4033C47.2337 42.4231 47.2206 42.4616 47.214 42.4814C47.5015 42.4939 47.7775 42.5059 48.0628 42.5452C48.9534 42.6679 49.8496 42.7577 50.7445 42.855C50.7735 42.8581 50.8043 42.862 50.8268 42.8805C50.9503 42.9819 50.6378 43.0275 50.5861 43.0427C50.4415 43.0854 50.298 43.1317 50.155 43.1792C49.8687 43.2742 49.5842 43.3746 49.2957 43.4626C48.1502 43.829 47.0102 44.213 45.8668 44.5855C45.263 44.7696 44.6493 44.9273 44.023 45.0064C42.8627 45.2552 41.6699 45.1981 40.4909 45.1998C40.1238 45.1882 39.7541 45.2085 39.3921 45.141C38.9295 45.1272 38.4751 45.036 38.0158 45.0064C37.8433 44.9685 37.7637 45.1443 37.6598 45.2432C37.2966 45.6146 36.9456 46.009 36.505 46.2925C36.188 46.5244 35.8408 46.7095 35.4831 46.8705C35.4067 46.9034 35.2979 46.9298 35.2348 46.8606C34.9557 46.6123 34.6914 46.3469 34.3953 46.1195C34.0431 46.3524 33.7086 46.6188 33.3157 46.7831C32.8028 46.9976 32.2975 47.1562 31.7438 47.2285C31.186 47.3013 30.6189 47.3013 30.0611 47.2297C29.4534 47.1518 28.8711 46.9924 28.325 46.7138C28.0005 46.5483 27.7129 46.3222 27.4136 46.1167C27.0922 46.3409 26.8312 46.6381 26.5279 46.8842C26.3725 46.9518 26.2247 46.8177 26.0868 46.7617C25.2726 46.3903 24.5803 45.7887 24.0112 45.1047C23.9579 45.0558 23.9211 44.9773 23.8458 44.9646C23.5112 44.9531 23.1898 45.075 22.8563 45.0816C22.3784 45.1124 21.9059 45.1997 21.4257 45.1948C20.6016 45.2058 19.7775 45.2074 18.9534 45.1893C17.875 45.097 16.7987 44.9212 15.7637 44.5976C14.0902 44.0587 12.4293 43.484 10.7482 42.972C10.7455 42.9527 10.7394 42.9137 10.7366 42.8945C11.3299 42.805 11.9255 42.7329 12.5213 42.663C13.0977 42.5953 13.6708 42.5057 14.2497 42.4868C14.2906 42.4855 14.3316 42.4838 14.3725 42.4813C14.3665 42.4615 14.3539 42.4225 14.3473 42.4028C13.8138 42.1742 13.2556 41.9962 12.7238 41.7589C10.908 40.9425 9.20443 39.8651 7.71675 38.5415C6.95912 37.874 6.25755 37.146 5.59664 36.3835C4.84562 35.5039 4.18579 34.5512 3.57213 33.5722C2.72441 32.1795 2.05856 30.6873 1.30808 29.2418C1.17569 28.9682 1.01744 28.7023 0.935059 28.4078C1.71299 28.8155 2.48051 29.2468 3.25734 29.6593C3.46775 29.7687 3.66115 29.9159 3.88971 29.9879C3.72599 29.6204 3.4914 29.2891 3.32274 28.9232C2.98596 28.2743 2.72388 27.5898 2.5014 26.8942C2.32785 26.3517 2.18272 25.8022 2.09198 25.2391C2.04506 24.9478 2.02854 24.6443 2.00974 24.35C1.97914 23.8703 1.98708 23.3898 1.9943 22.9095C2.00747 21.947 2.26184 21.013 2.39976 20.0653C2.46512 20.0658 2.53436 20.0647 2.59589 20.0939C3.19142 20.3971 3.76555 20.7526 4.39789 20.9789C5.44395 21.336 6.59546 21.4888 7.67288 21.1817C8.34754 20.9877 8.99143 20.6493 9.48259 20.1416C10.5742 19.1368 11.189 17.7408 11.6329 16.352C11.6719 16.201 11.7719 16.0362 11.7098 15.8823C10.394 13.6298 9.4227 11.1514 9.05078 8.56173C8.95353 7.4069 8.93485 6.24218 9.05022 5.08834C9.19198 4.16865 9.43864 3.26162 9.82103 2.41223C10.0463 1.88919 10.3429 1.40245 10.633 0.914023M49.3407 4.50697C48.7067 4.82452 48.0831 5.16735 47.5079 5.58323C46.7887 6.07989 46.1701 6.70344 45.5757 7.3402C44.8593 8.1698 44.2318 9.07463 43.4792 9.87292C43.3819 9.89655 43.3177 9.99763 43.2369 10.0542C42.9573 10.3168 42.5765 10.4674 42.1936 10.4602C41.7689 10.4091 41.3706 10.208 41.0454 9.935C40.696 9.6169 40.368 9.26418 40.14 8.8472C40.3778 8.46702 40.7058 8.15168 40.991 7.80664C41.0591 7.70939 41.2019 7.63302 41.1844 7.49898C38.8599 6.53809 36.4051 5.86232 33.8967 5.63158C32.9072 5.56455 31.8952 5.53488 30.9265 5.7843C30.4563 5.70518 29.9827 5.60246 29.5014 5.61345C28.9163 5.62006 28.3262 5.57994 27.7466 5.6728C27.4747 5.68819 27.2016 5.68819 26.9341 5.74038C24.7612 6.0332 22.6476 6.67709 20.6194 7.49624C20.5942 7.59183 20.6749 7.66162 20.7282 7.7292C21.0199 8.05937 21.3309 8.37529 21.594 8.72964C21.7122 8.87853 21.5287 9.02302 21.4562 9.14718C21.0166 9.76799 20.4068 10.374 19.6129 10.4586C19.2185 10.4701 18.8114 10.3185 18.5383 10.0289C18.4696 9.9773 18.4153 9.88555 18.3284 9.87182C17.4274 8.96257 16.7522 7.8583 15.8529 6.9462C14.8673 5.90456 13.6723 5.05739 12.3588 4.48271C12.1017 4.84367 12.0435 5.3035 11.9545 5.72819C11.8375 6.52262 11.8891 7.33077 11.9017 8.1307C12.0693 10.0734 12.5363 11.984 13.195 13.8176C13.3401 14.1862 13.4423 14.579 13.6461 14.9208C13.6422 15.1273 13.7362 15.3801 13.568 15.5465C13.451 15.6954 13.2318 15.6833 13.0978 15.7982C12.7187 17.2101 12.1968 18.6105 11.3491 19.8126C10.7376 20.6983 9.9124 21.4454 8.93281 21.9014C8.43892 22.1585 7.88841 22.2646 7.34835 22.3772C6.82257 22.4129 6.29406 22.403 5.76828 22.3843C5.13262 22.291 4.49863 22.1553 3.90198 21.9113C3.73882 21.847 3.58609 21.7558 3.41522 21.7135C3.24766 22.4107 3.27128 23.1326 3.25371 23.8441C3.21746 24.5374 3.42787 25.2088 3.56026 25.8818L3.58554 25.84C3.60093 26.0296 3.67069 26.2086 3.72509 26.3905C4.20909 27.9371 5.00573 29.3705 5.96717 30.6697C6.26878 31.1098 6.58193 31.5427 6.93137 31.9465C6.91435 31.974 6.88028 32.0289 6.86268 32.0564C6.23692 32.1097 5.63533 31.8998 5.04913 31.7108C4.59532 31.5509 4.1624 31.3378 3.74158 31.1065C3.8075 31.3543 3.96133 31.5647 4.07891 31.79C4.65688 32.8651 5.3211 33.8947 6.07047 34.8584C6.34627 35.221 6.65556 35.5556 6.94292 35.9094C9.04984 38.2702 11.7475 40.1243 14.7554 41.1303C15.9976 41.5687 17.2953 41.8664 18.6111 41.9555C18.6116 42.0747 18.5078 42.1461 18.4314 42.223C18.2204 42.4202 17.9749 42.5741 17.7353 42.7339C17.3007 43.0273 16.7904 43.1844 16.2827 43.2943C16.2855 43.3196 16.291 43.3702 16.2937 43.3954C17.8282 43.8613 19.4445 43.9767 21.041 43.9333C21.4821 43.9454 21.9178 43.8684 22.3579 43.8547C22.5914 43.8184 22.8336 43.8338 23.0622 43.7663C23.055 43.7003 23.0358 43.6377 23.0084 43.5806C22.5183 42.6191 22.2238 41.5544 22.1486 40.4798C21.8173 40.4436 21.4838 40.476 21.152 40.4628C20.5427 40.4655 19.9378 40.3886 19.3351 40.3095C18.3687 40.1524 17.4062 39.9425 16.4887 39.5964C16.2442 39.4953 15.964 39.4447 15.7674 39.2574C16.4547 39.2706 17.1255 38.9717 17.6067 38.4872C17.61 38.4575 17.6166 38.3987 17.6194 38.3696C17.5848 38.358 17.515 38.335 17.4804 38.3234C15.6927 37.3801 14.0532 36.1621 12.6133 34.7453C11.8161 33.9273 11.0552 33.0724 10.3789 32.1516C9.14767 30.4617 8.11645 28.6119 7.42852 26.6341C7.5829 26.5835 7.75047 26.6253 7.9109 26.6165C8.852 26.5857 9.77774 26.338 10.6343 25.9506C11.566 25.5155 12.4539 24.9573 13.1669 24.2101C13.7718 23.6283 14.2641 22.9042 14.4789 22.0862C14.5739 21.7444 14.5217 21.3884 14.5454 21.0412C14.9464 20.9478 15.3579 20.9127 15.7639 20.8517C16.5518 20.8352 17.3473 20.7912 18.1274 20.9192C19.1647 21.0681 20.1734 21.3988 21.1144 21.8576C22.0803 22.3598 22.9994 22.9745 23.762 23.7557C23.8268 23.8068 23.8828 23.9101 23.9834 23.8805C23.8894 23.4173 23.8938 22.9415 23.9164 22.4724C23.9186 22.2372 24.0048 22.0153 24.1098 21.8087C24.146 21.734 24.1867 21.6335 24.2905 21.6505C24.685 22.6262 25.2503 23.5327 25.9337 24.3354C26.4699 24.9238 27.0441 25.5072 27.7665 25.8654C27.9247 25.9357 28.0835 26.05 28.2665 26.0193C28.8362 25.0276 29.1972 23.9349 29.5213 22.8432C29.8372 21.712 30.0993 20.5648 30.308 19.4094L30.3267 19.4555C30.3761 19.2083 30.4041 18.9577 30.4487 18.71C30.5162 18.1655 30.658 17.6321 30.6992 17.0843C30.736 16.8464 30.7926 16.6113 30.7997 16.3701C30.8162 16.2591 30.8096 16.1097 30.9338 16.0619C30.9882 16.2151 31.0063 16.3778 31.0118 16.5404C31.1184 17.3667 31.2612 18.188 31.4024 19.0094C31.7491 20.8438 32.1474 22.6794 32.7984 24.4336C33.0122 24.9758 33.2215 25.529 33.5363 26.0219C33.6236 26.0274 33.7143 26.018 33.795 25.9796C34.184 25.812 34.5439 25.5813 34.8707 25.3132C35.6745 24.6396 36.3437 23.8161 36.8782 22.9161C37.1084 22.5063 37.3436 22.092 37.4705 21.636C37.4925 21.6322 37.537 21.6234 37.559 21.619C37.7238 21.813 37.8034 22.0668 37.8633 22.3113C37.9336 22.8337 37.9023 23.3661 37.8183 23.8853C37.9155 23.8974 37.971 23.8023 38.038 23.7501C39.6967 22.097 41.946 21.0422 44.2803 20.8455C45.278 20.8263 46.2998 20.7867 47.2667 21.0718C47.27 21.4147 47.2326 21.7657 47.3238 22.1014C47.5001 22.764 47.8551 23.3722 48.3144 23.8782C48.9714 24.6506 49.8093 25.2527 50.7026 25.7241C51.6854 26.245 52.7798 26.5801 53.8949 26.6163C54.0493 26.6317 54.2246 26.5707 54.3663 26.6416C54.2114 27.1245 54.0109 27.5915 53.807 28.0552C52.9197 30.0314 51.7397 31.8745 50.3243 33.5134C48.9206 35.1594 47.2471 36.572 45.4066 37.7059C45.0627 37.9229 44.6935 38.0982 44.3551 38.3218C44.2782 38.291 44.2117 38.3663 44.1529 38.4031C44.3271 38.6783 44.6237 38.841 44.8995 38.9981C45.2424 39.1991 45.6467 39.2469 46.0373 39.2585C45.9148 39.3794 45.7478 39.4294 45.5923 39.4914C44.2386 40.0013 42.8118 40.3194 41.3696 40.4309C40.8009 40.4936 40.2262 40.4381 39.6571 40.4787C39.5791 41.4561 39.322 42.4208 38.9171 43.3136C38.855 43.4718 38.7319 43.6202 38.7506 43.7998C39.3654 43.8581 39.9829 43.863 40.5971 43.9295C41.9025 43.9603 43.2216 43.9372 44.499 43.6383C44.8473 43.5477 45.2182 43.5147 45.5429 43.3504C45.5209 43.3339 45.478 43.3004 45.4566 43.284C44.6946 43.1301 43.9853 42.7582 43.3991 42.2517C43.3145 42.166 43.1827 42.0923 43.1947 41.9555C44.8742 41.8495 46.5058 41.3688 48.0639 40.7518C50.1549 39.8926 52.0821 38.6367 53.7127 37.0707C54.356 36.5021 54.9081 35.8428 55.463 35.1907C56.2146 34.2353 56.9151 33.2365 57.5018 32.1705C57.6853 31.8145 57.9161 31.481 58.0644 31.108C57.6639 31.3124 57.2667 31.5234 56.842 31.6761C56.1997 31.9255 55.5124 32.1184 54.8169 32.0524C54.8109 32.0288 54.7982 31.9816 54.7916 31.9579C54.8559 31.8876 54.9246 31.8211 54.9872 31.7497C55.663 30.897 56.3234 30.0273 56.8766 29.089C57.4601 28.0792 57.9194 26.9985 58.2413 25.8777C58.3232 25.709 58.3687 25.5261 58.4094 25.3437C58.5479 24.7141 58.6682 24.0652 58.5621 23.4202C58.5204 23.1972 58.544 22.9692 58.5171 22.745C58.466 22.4011 58.5154 22.0402 58.377 21.7127C58.2182 21.7506 58.0764 21.8347 57.927 21.8962C57.3403 22.1533 56.703 22.2544 56.0794 22.3781C55.5888 22.4105 55.0965 22.4011 54.6065 22.3896C53.5429 22.266 52.5117 21.843 51.682 21.1628C50.8871 20.5085 50.28 19.6575 49.8047 18.751C49.3026 17.8214 48.9845 16.8067 48.6983 15.7948C48.5104 15.6987 48.2642 15.6608 48.1675 15.4481C48.0516 15.2751 48.1368 15.0735 48.1829 14.8938C48.7675 13.5099 49.2059 12.0639 49.524 10.5966C49.7311 9.5291 49.9201 8.45174 49.9179 7.36115C49.9377 6.38543 49.9009 5.36741 49.4603 4.47573C49.4169 4.47512 49.3768 4.48556 49.3399 4.50697M39.4827 29.3205C38.5586 29.6133 37.6235 29.9402 36.839 30.5259C36.7879 30.5528 36.7538 30.6132 36.7868 30.6687C37.2456 30.9967 37.7191 31.3241 38.2625 31.4944C38.7377 31.6296 39.2596 31.6026 39.7195 31.4197C40.1755 31.2362 40.643 31.0643 41.0462 30.7758C41.9912 30.1259 42.8428 29.3535 43.6899 28.5838C43.6998 28.548 43.7201 28.4772 43.7306 28.4414C42.2977 28.6409 40.8721 28.9139 39.4828 29.3205M18.0956 28.4673C18.0395 28.5898 18.178 28.6474 18.2494 28.72C19.0878 29.4628 19.9157 30.2264 20.8519 30.8472C21.2145 31.0955 21.6342 31.2362 22.0364 31.406C22.6248 31.6499 23.317 31.6389 23.8895 31.356C24.2839 31.1637 24.6685 30.9384 25.002 30.6522C24.9921 30.5483 24.8982 30.4939 24.8251 30.4374C24.4515 30.1638 24.0301 29.9649 23.606 29.7836C22.3534 29.2655 21.0271 28.9551 19.698 28.7057C19.1662 28.6134 18.6349 28.5019 18.0954 28.4673M29.838 29.2595C29.1908 29.3864 28.5519 29.5869 27.9723 29.9056C28.1442 30.1346 28.4178 30.2781 28.5425 30.5495C28.2058 30.739 27.9245 31.0087 27.6525 31.279C26.529 32.3597 25.8258 33.7953 25.3324 35.2551C25.1918 35.7457 25.0198 36.2325 24.9583 36.7418C24.8995 36.7374 24.8226 36.739 24.8094 36.6665C24.6028 36.1506 24.4501 35.615 24.3089 35.0782C24.249 34.9183 24.2457 34.7486 24.2342 34.5815C24.2128 34.5843 24.1699 34.5892 24.1485 34.592C24.0617 34.7068 24.0414 34.8546 23.9919 34.9876C23.5238 36.4121 23.1601 37.8878 23.1129 39.3916C23.1371 39.6855 23.1568 39.9805 23.2107 40.2706C23.1563 40.8073 23.2991 41.3337 23.4354 41.8479C23.87 43.3719 24.8061 44.7866 26.1527 45.648C26.2137 45.6946 26.3103 45.726 26.3659 45.6518C27.1163 44.9744 27.9816 44.4217 28.9205 44.0448C29.5815 43.8069 30.2748 43.6075 30.9841 43.6421C31.3978 43.6251 31.8021 43.7267 32.2004 43.8273C33.3552 44.1454 34.4205 44.7574 35.3099 45.5557C35.395 45.6161 35.4928 45.7606 35.6066 45.6645C37.0119 44.7948 37.9646 43.3147 38.3876 41.7364C38.5112 41.259 38.6425 40.7684 38.587 40.2706C38.7046 39.5746 38.6722 38.8593 38.5782 38.162C38.4145 37.0605 38.1365 35.9777 37.7794 34.924C37.7399 34.8114 37.7322 34.6757 37.6228 34.6065C37.4806 34.985 37.419 35.3904 37.2937 35.7761C37.2102 36.053 37.0894 36.3189 37.0306 36.6035C37.0009 36.6128 36.9416 36.631 36.9119 36.6398C36.8702 36.609 36.8301 36.5782 36.7916 36.5469C36.7856 36.392 36.7372 36.2442 36.7026 36.0953C36.4191 35.0185 36.0313 33.9625 35.4643 33.0012C34.9314 32.0579 34.2067 31.2168 33.326 30.5828C33.504 30.34 33.7535 30.1653 33.9474 29.9384C33.9194 29.8433 33.7908 29.828 33.7167 29.7791C33.0332 29.4527 32.2915 29.2483 31.5356 29.1923C30.9708 29.1011 30.3989 29.178 29.8379 29.2598L29.838 29.2595Z" stroke="black"/>
<path d="M49.3402 4.50726C49.377 4.48584 49.4171 4.4754 49.4606 4.47593C49.9012 5.3676 49.938 6.38562 49.9182 7.36134C49.9204 8.45188 49.7314 9.52924 49.5243 10.5968C49.2062 12.0642 48.7678 13.5102 48.1832 14.894C48.1415 14.9226 48.0992 14.9495 48.0569 14.9753C47.691 14.6627 47.5146 14.1836 47.4261 13.7227C47.358 13.254 47.3613 12.7612 47.5217 12.3107C47.5893 12.1135 47.7113 11.9421 47.7975 11.7542C47.5619 11.5509 47.2426 11.4844 46.9471 11.4169C46.6306 11.3619 46.2983 11.4169 45.9923 11.3059C46.0423 10.7834 46.2543 10.2928 46.4592 9.81537C46.4905 9.73407 46.5158 9.64999 46.5334 9.5654C45.583 9.4797 44.6105 9.57858 43.6991 9.86427C43.6271 9.8879 43.5518 9.87856 43.4788 9.87306C44.2314 9.07479 44.8588 8.16994 45.5752 7.34034C46.1697 6.70358 46.7883 6.08003 47.5075 5.58337C48.0827 5.16755 48.7062 4.82472 49.3402 4.50717V4.50726Z" fill="white" stroke="white"/>
<path d="M12.3583 4.48282C13.6719 5.0575 14.8669 5.90464 15.8524 6.94631C16.7517 7.85829 17.427 8.96259 18.3279 9.87192C18.2637 9.89005 18.1972 9.91699 18.1307 9.89281C17.1693 9.62855 16.1606 9.46207 15.1629 9.56648C15.2233 9.87303 15.3959 10.1417 15.4876 10.4395C15.5733 10.718 15.6931 10.9977 15.6865 11.2949C15.3129 11.408 14.9124 11.3537 14.5377 11.4641C14.3136 11.5306 14.0724 11.5905 13.8966 11.7542C14.0097 12.0097 14.174 12.2448 14.2322 12.5228C14.3899 13.2189 14.3097 13.9842 13.9493 14.6072C13.879 14.738 13.7636 14.8341 13.6455 14.9209C13.4416 14.5792 13.3395 14.1864 13.1944 13.8177C12.5357 11.9844 12.0687 10.0735 11.9012 8.13084C11.8885 7.33091 11.8369 6.52275 11.9539 5.72832C12.0429 5.30363 12.1012 4.84377 12.3583 4.48282H12.3583Z" fill="white" stroke="white"/>
<path d="M30.9261 5.78462C31.8947 5.5352 32.9066 5.56487 33.8962 5.6319C36.4047 5.86264 38.8593 6.53841 41.1839 7.49929C41.2015 7.63334 41.0586 7.7097 40.9905 7.80695C40.7054 8.15196 40.3774 8.46733 40.1395 8.84752C40.3675 9.2645 40.6955 9.61722 41.0449 9.93532C41.3702 10.2084 41.7685 10.4094 42.1931 10.4605C42.5761 10.4677 42.9568 10.3172 43.2364 10.0545C43.3172 9.99795 43.3815 9.89686 43.4787 9.87324C43.5518 9.87874 43.6271 9.88808 43.699 9.86446C44.6105 9.57876 45.5829 9.47988 46.5334 9.56558C46.5158 9.65018 46.4905 9.73425 46.4592 9.81556C46.2543 10.293 46.0422 10.7836 45.9922 11.3061C46.2982 11.417 46.6306 11.3621 46.9471 11.417C47.2426 11.4846 47.5618 11.5511 47.7975 11.7544C47.7113 11.9423 47.5893 12.1137 47.5217 12.3109C47.3613 12.7614 47.358 13.2542 47.4261 13.7229C47.5146 14.1838 47.6909 14.6629 48.0568 14.9755C48.0991 14.9497 48.1414 14.9227 48.1832 14.8942C48.137 15.0738 48.0519 15.2755 48.1678 15.4485C48.2645 15.6611 48.5106 15.6991 48.6985 15.7952C48.9848 16.8072 49.3029 17.8219 49.805 18.7514C50.2802 19.6579 50.8873 20.5089 51.6823 21.1632C52.5119 21.8433 53.5431 22.2664 54.6068 22.39C55.0968 22.4015 55.5891 22.4109 56.0797 22.3784C56.7032 22.2548 57.3406 22.1537 57.9273 21.8966C58.0767 21.8351 58.2185 21.751 58.3772 21.7131C58.5157 22.0405 58.4662 22.4015 58.5173 22.7454C58.5443 22.9695 58.5206 23.1976 58.5624 23.4206C58.6684 24.0656 58.5481 24.7144 58.4097 25.344C58.369 25.5264 58.3234 25.7094 58.2416 25.8781C58.2438 25.7665 58.2427 25.6561 58.241 25.5457C58.0301 25.9725 57.7581 26.3731 57.3867 26.6763C57.1466 26.8631 56.9137 27.0939 56.6044 27.1543C56.6368 26.8472 56.7285 26.5511 56.7873 26.2489C56.8791 25.8379 56.8307 25.4144 56.8444 24.9979C56.8395 24.7848 56.8703 24.5606 56.7868 24.3595C56.4621 24.3365 56.1412 24.4156 55.8171 24.4073C55.06 24.3535 54.292 24.3683 53.5514 24.1783C52.8658 23.9816 52.1828 23.7442 51.5769 23.3608C50.8138 22.9026 50.1715 22.251 49.7106 21.4912C49.1639 20.5731 48.8403 19.5315 48.7167 18.4733C48.6898 18.3091 48.6766 18.1074 48.5102 18.0212C47.6872 17.5125 46.7329 17.2509 45.7802 17.1251C45.2083 17.0537 44.6336 17.1026 44.0606 17.1147C44.1073 16.8938 44.287 16.7367 44.4139 16.5598C44.732 16.1439 45.0985 15.7692 45.4424 15.3758C45.3611 15.2489 45.1808 15.2813 45.0523 15.2594C42.886 15.1764 40.7201 15.6972 38.7711 16.6301C37.8597 17.0564 36.9878 17.5668 36.1653 18.1459C35.9395 18.2997 35.7368 18.4865 35.4962 18.6173C35.3006 17.8937 35.4819 17.1471 35.5599 16.4219C35.1319 16.4949 34.7473 16.7103 34.3534 16.8817C33.3557 17.3525 32.3937 17.9211 31.5752 18.6656C31.4741 18.7529 31.4345 18.8837 31.4021 19.0095C31.2609 18.1882 31.1181 17.3668 31.0115 16.5405C31.006 16.3779 30.9879 16.2153 30.9335 16.062C30.8093 16.1098 30.8159 16.2592 30.7994 16.3702C30.7923 16.6114 30.7357 16.8466 30.6989 17.0845C30.6577 17.6322 30.5159 18.1657 30.4483 18.7101C30.4038 18.9579 30.3758 19.2084 30.3264 19.4556L30.3077 19.4095C30.3176 19.2068 30.3659 19.0008 30.3242 18.8002C30.1759 18.564 29.9193 18.4272 29.7127 18.2486C28.8892 17.5959 27.9546 17.0987 26.9932 16.6823C26.7366 16.5724 26.4839 16.4461 26.2109 16.384C26.2812 16.9641 26.4197 17.5427 26.385 18.1316C26.374 18.2909 26.3422 18.4513 26.2697 18.5953C25.8609 18.3398 25.4879 18.03 25.0802 17.7723C23.2546 16.5916 21.2036 15.7214 19.0477 15.389C18.433 15.3181 17.8154 15.2374 17.1952 15.2506C16.9111 15.2561 16.6095 15.2297 16.3491 15.3665C16.6315 15.7 16.9441 16.0076 17.21 16.3565C17.3842 16.5938 17.6347 16.7927 17.7111 17.0894C17.1144 17.1432 16.5046 17.0323 15.9179 17.1866C15.0641 17.352 14.2307 17.6476 13.489 18.1052C13.3291 18.1953 13.3104 18.3915 13.2791 18.5535C13.1352 19.5271 12.8138 20.4775 12.3149 21.3274C11.6359 22.468 10.5552 23.353 9.31629 23.8233C8.73833 24.0376 8.14607 24.2337 7.5291 24.2914C6.7171 24.4601 5.88311 24.3249 5.06506 24.3947C4.91123 24.8754 4.9777 25.3968 5.01892 25.8913C5.04859 26.3297 5.17164 26.7533 5.22494 27.1878C4.81785 27.0268 4.48546 26.7258 4.18054 26.4198C3.91354 26.1544 3.72894 25.8242 3.56082 25.4913C3.56743 25.6067 3.57676 25.7232 3.585 25.8402L3.55972 25.8819C3.42733 25.2089 3.21689 24.5375 3.25316 23.8442C3.27073 23.1327 3.24711 22.4108 3.41467 21.7137C3.58552 21.756 3.73827 21.8472 3.90144 21.9114C4.49809 22.1554 5.13208 22.2911 5.76773 22.3845C6.29351 22.4032 6.82203 22.4131 7.34781 22.3774C7.88787 22.2647 8.43835 22.1587 8.93227 21.9016C9.91183 21.4456 10.737 20.6984 11.3485 19.8128C12.1962 18.6107 12.7181 17.2103 13.0972 15.7983C13.2313 15.6835 13.4505 15.6956 13.5675 15.5467C13.7356 15.3802 13.6417 15.1275 13.6455 14.9209C13.7636 14.8341 13.879 14.738 13.9493 14.6072C14.3097 13.9842 14.3899 13.2189 14.2323 12.5228C14.174 12.2448 14.0098 12.0097 13.8966 11.7542C14.0724 11.5905 14.3136 11.5306 14.5378 11.4641C14.9124 11.3537 15.313 11.4081 15.6865 11.2949C15.6931 10.9977 15.5733 10.718 15.4876 10.4395C15.3959 10.1417 15.2234 9.87307 15.163 9.56648C16.1607 9.46211 17.1694 9.62856 18.1308 9.89282C18.1972 9.91699 18.2637 9.89009 18.328 9.87193C18.4148 9.88566 18.4692 9.97741 18.5378 10.029C18.8109 10.3186 19.218 10.4702 19.6125 10.4587C20.4064 10.3741 21.0162 9.76811 21.4557 9.14729C21.5282 9.02313 21.7117 8.87864 21.5936 8.72976C21.3304 8.37541 21.0195 8.05949 20.7277 7.72931C20.6744 7.66173 20.5937 7.59197 20.619 7.49636C22.6473 6.6772 24.7609 6.03331 26.9336 5.74049C27.2012 5.6883 27.4742 5.6883 27.7462 5.67291C28.3258 5.58006 28.9158 5.62017 29.5009 5.61357C29.9821 5.60254 30.4557 5.70529 30.9259 5.78442L30.9261 5.78462Z" fill="#C2C2CE" stroke="#C2C2CE"/>
<path d="M16.3493 15.3664C16.6097 15.2296 16.9113 15.256 17.1954 15.2505C17.8156 15.2373 18.4332 15.3181 19.0479 15.3889C21.2038 15.7213 23.2547 16.5915 25.0804 17.7722C25.4881 18.0299 25.8611 18.3397 26.2699 18.5952C26.3424 18.4513 26.3742 18.2908 26.3852 18.1315C26.4198 17.5426 26.2814 16.9641 26.2111 16.3839C26.4841 16.446 26.7368 16.5723 26.9934 16.6822C27.9548 17.0986 28.8894 17.5959 29.7129 18.2485C29.9195 18.4271 30.1761 18.5639 30.3244 18.8001C30.3661 19.0006 30.3178 19.2067 30.3079 19.4094C30.0991 20.5648 29.8371 21.7119 29.5212 22.8432C29.197 23.9349 28.8361 25.0276 28.2664 26.0193C28.0834 26.0501 27.9246 25.9358 27.7664 25.8655C27.0439 25.5073 26.4699 24.9238 25.9336 24.3354C25.2502 23.5328 24.6849 22.6263 24.2904 21.6505C24.1866 21.6335 24.1459 21.7341 24.1096 21.8088C24.0047 22.0153 23.9185 22.2373 23.9162 22.4724C23.8937 22.9416 23.8893 23.4174 23.9833 23.8805C23.8827 23.9102 23.8267 23.8069 23.7619 23.7558C22.9993 22.9746 22.0802 22.3598 21.1143 21.8577C20.1732 21.3989 19.1645 21.0682 18.1273 20.9193C17.3472 20.7913 16.5517 20.8352 15.7638 20.8517C15.3578 20.9127 14.9463 20.9479 14.5452 21.0413C14.5216 21.3885 14.5738 21.7445 14.4788 22.0862C14.264 22.9043 13.7717 23.6284 13.1668 24.2102C12.4537 24.9574 11.5659 25.5156 10.6341 25.9507C9.77763 26.338 8.85188 26.5858 7.91078 26.6165C7.75035 26.6253 7.58279 26.5836 7.42841 26.6341C8.11625 28.6119 9.14747 30.4618 10.3788 32.1517C11.055 33.0725 11.816 33.9273 12.6132 34.7454C14.0531 36.1623 15.6927 37.3803 17.4803 38.3235C17.5176 38.3718 17.5539 38.4224 17.589 38.4751C17.4885 38.4987 17.3841 38.5092 17.2825 38.4932C15.1069 38.0784 13.0295 37.1862 11.2067 35.932C10.3117 35.3243 9.46784 34.6403 8.68988 33.8882C8.06633 33.2767 7.44769 32.6532 6.93128 31.9467C6.58188 31.5429 6.26872 31.1099 5.96708 30.6699C5.00564 29.3705 4.20901 27.9372 3.725 26.3907C3.6706 26.2088 3.60084 26.0297 3.58545 25.8402C3.57722 25.7231 3.56788 25.6067 3.56128 25.4913C3.72939 25.8242 3.914 26.1544 4.18099 26.4198C4.48592 26.7258 4.8183 27.0269 5.22539 27.1878C5.1721 26.7532 5.04905 26.3297 5.01938 25.8913C4.97818 25.3968 4.91168 24.8754 5.06551 24.3947C5.88356 24.325 6.71755 24.4601 7.52955 24.2914C8.14653 24.2337 8.73878 24.0376 9.31675 23.8233C10.5556 23.353 11.6363 22.468 12.3154 21.3274C12.8142 20.4775 13.1356 19.5271 13.2796 18.5535C13.3109 18.3915 13.3296 18.1953 13.4894 18.1052C14.2311 17.6476 15.0646 17.352 15.9183 17.1866C16.5051 17.0323 17.1149 17.1432 17.7115 17.0894C17.6352 16.7927 17.3846 16.5938 17.2105 16.3565C16.9446 16.0076 16.632 15.7 16.3496 15.3665L16.3493 15.3664Z" fill="white" stroke="white"/>
<path d="M38.7716 16.6301C40.7209 15.6972 42.8867 15.1764 45.0528 15.2593C45.1813 15.2813 45.3616 15.2489 45.4429 15.3758C45.0989 15.7692 44.7325 16.1439 44.4144 16.5598C44.2875 16.7367 44.1078 16.8938 44.0611 17.1147C44.6341 17.1026 45.2088 17.0537 45.7807 17.1251C46.7334 17.2509 47.6877 17.5125 48.5107 18.0212C48.6772 18.1074 48.6903 18.3091 48.7172 18.4733C48.8408 19.5315 49.1644 20.5731 49.7111 21.4912C50.172 22.251 50.8143 22.9025 51.5774 23.3608C52.1834 23.7442 52.8663 23.9816 53.5519 24.1782C54.2925 24.3684 55.0605 24.3535 55.8176 24.4073C56.1417 24.4156 56.4626 24.3365 56.7873 24.3595C56.8708 24.5606 56.84 24.7848 56.8449 24.9979C56.8312 25.4144 56.8796 25.8379 56.7878 26.2489C56.729 26.5511 56.6373 26.8472 56.6049 27.1543C56.9142 27.0939 57.1471 26.8631 57.3872 26.6763C57.7586 26.3731 58.0305 25.9725 58.2415 25.5457C58.2432 25.6561 58.2442 25.7665 58.2421 25.8781C57.9201 26.9988 57.4608 28.0795 56.8774 29.0893C56.3241 30.0277 55.6638 30.8974 54.988 31.7501C54.9254 31.8215 54.8567 31.888 54.7924 31.9583C54.126 32.8142 53.3338 33.5647 52.5245 34.2844C51.0263 35.5684 49.3467 36.6545 47.5227 37.416C46.5888 37.8242 45.607 38.1126 44.6186 38.3571C44.528 38.3862 44.439 38.3522 44.3555 38.322C44.6939 38.0983 45.0631 37.9231 45.407 37.7061C47.2475 36.5721 48.9208 35.1596 50.3247 33.5136C51.74 31.8747 52.9201 30.0315 53.8074 28.0554C54.0113 27.5917 54.2118 27.1247 54.3667 26.6418C54.225 26.5709 54.0497 26.6319 53.8954 26.6165C52.7801 26.5802 51.6857 26.2451 50.703 25.7243C49.8097 25.2529 48.9718 24.6508 48.3148 23.8783C47.8555 23.3723 47.5006 22.7642 47.3242 22.1016C47.233 21.7659 47.2704 21.4148 47.2671 21.072C46.3002 20.7869 45.2783 20.8264 44.2807 20.8457C41.9463 21.0423 39.6972 22.0972 38.0385 23.7503C37.9714 23.8025 37.9159 23.8975 37.8187 23.8855C37.9028 23.3663 37.9341 22.8339 37.8637 22.3114C37.8039 22.067 37.7242 21.8131 37.5594 21.6192C37.5374 21.6236 37.4929 21.6324 37.4709 21.6362C37.344 22.0922 37.1088 22.5065 36.8787 22.9163C36.3441 23.8162 35.6749 24.6398 34.8712 25.3133C34.5443 25.5814 34.1844 25.8122 33.7955 25.9797C33.7147 26.0182 33.6241 26.0275 33.5367 26.022C33.2219 25.5292 33.0126 24.976 32.7988 24.4337C32.1478 22.6795 31.7495 20.844 31.4028 19.0095C31.4352 18.8837 31.4748 18.753 31.5759 18.6656C32.3945 17.9212 33.3565 17.3525 34.3542 16.8817C34.7481 16.7103 35.1327 16.4949 35.5606 16.4219C35.4826 17.1471 35.3013 17.8937 35.4969 18.6173C35.7375 18.4865 35.9403 18.2997 36.1661 18.1459C36.9885 17.5668 37.8604 17.0564 38.7719 16.6301H38.7716Z" fill="white" stroke="white"/>
<path d="M39.4844 29.3202C40.8738 28.9136 42.2995 28.6406 43.7322 28.4412C43.7217 28.4769 43.7014 28.5477 43.6915 28.5835C42.8444 29.3532 41.9928 30.1256 41.0479 30.7755C40.6446 31.064 40.1771 31.2359 39.7211 31.4194C39.2612 31.6024 38.7393 31.6293 38.2641 31.4941C37.7207 31.3238 37.2471 30.9964 36.7884 30.6684C36.7555 30.6129 36.7895 30.5525 36.8406 30.5256C37.6251 29.9399 38.5602 29.613 39.4842 29.3202H39.4844Z" fill="white" stroke="white"/>
<path d="M18.0959 28.4672C18.6354 28.5019 19.1667 28.6134 19.6985 28.7057C21.0275 28.9551 22.3537 29.2655 23.6065 29.7836C24.0306 29.9649 24.452 30.1638 24.8256 30.4374C24.8987 30.4939 24.9926 30.5483 25.0025 30.6522C24.669 30.9384 24.2844 31.1637 23.89 31.3559C23.3175 31.6389 22.6253 31.6499 22.0369 31.406C21.6347 31.2362 21.215 31.0955 20.8524 30.8472C19.9162 30.2264 19.0883 29.4627 18.2499 28.72C18.1784 28.6475 18.04 28.5898 18.0961 28.4672H18.0959Z" fill="white" stroke="white"/>
<path d="M29.8379 29.2591C30.3989 29.1772 30.9708 29.1003 31.5356 29.1915C32.2915 29.2475 33.0332 29.4519 33.7166 29.7783C33.7908 29.8272 33.9194 29.8425 33.9474 29.9376C33.7534 30.1645 33.504 30.3392 33.326 30.582C32.3486 31.6912 31.6438 33.0213 31.1762 34.419C31.1076 34.635 31.0488 34.8564 30.9433 35.0585C30.6219 34.0537 30.2615 33.051 29.7159 32.1422C29.3764 31.5769 29.0243 31.0055 28.5424 30.549C28.4177 30.2776 28.1441 30.1342 27.9722 29.9051C28.5518 29.5865 29.1908 29.3859 29.8379 29.259V29.2591Z" fill="#C2C2CE" stroke="#C2C2CE"/>
<path d="M27.6533 31.278C27.9252 31.0076 28.2065 30.7379 28.5433 30.5484C29.0251 31.0049 29.3773 31.5763 29.7168 32.1416C30.2624 33.0503 30.6228 34.0529 30.9442 35.0579C31.0496 34.8558 31.1084 34.6343 31.1771 34.4184C31.6447 33.0208 32.3495 31.6907 33.3269 30.5814C34.2076 31.2154 34.9322 32.0565 35.4652 32.9998C36.0321 33.9613 36.42 35.0172 36.7035 36.0939C36.7381 36.2428 36.7864 36.3906 36.7925 36.5455C36.7991 36.6301 36.8084 36.7147 36.8265 36.7999C36.8793 36.7922 36.9315 36.7806 36.9831 36.7641C37.0023 36.7103 37.0183 36.6564 37.0315 36.6021C37.0903 36.3175 37.2111 36.0516 37.2946 35.7747C37.4199 35.389 37.4814 34.9836 37.6237 34.605C37.733 34.6743 37.7408 34.8099 37.7803 34.9226C38.1374 35.9763 38.4154 37.0592 38.5791 38.1606C38.6731 38.8578 38.7055 39.5731 38.5879 40.2692C38.6434 40.767 38.5121 41.2576 38.3885 41.735C37.9654 43.3134 37.0128 44.7935 35.6074 45.6631C35.4937 45.7592 35.3959 45.6147 35.3108 45.5543C34.4213 44.756 33.356 44.144 32.2013 43.8259C31.803 43.7253 31.3986 43.6237 30.985 43.6407C30.2757 43.6061 29.5824 43.8055 28.9214 44.0434C27.9825 44.4203 27.1172 44.973 26.3667 45.6504C26.3113 45.7246 26.2146 45.6932 26.1536 45.6465C24.807 44.7851 23.8708 43.3704 23.4363 41.8465C23.3 41.3322 23.1572 40.8059 23.2116 40.2691C23.1577 39.9791 23.1379 39.6841 23.1138 39.3901C23.161 37.8864 23.5247 36.4107 23.9928 34.9861C24.0422 34.8532 24.0626 34.7054 24.1494 34.5906C24.1708 34.5878 24.2137 34.5829 24.2351 34.5801C24.2466 34.7471 24.2499 34.9169 24.3098 35.0768C24.451 35.6135 24.6037 36.1492 24.8103 36.6651C24.8235 36.7376 24.9004 36.7359 24.9592 36.7403C25.0207 36.2311 25.1927 35.7443 25.3333 35.2537C25.8266 33.794 26.5299 32.3584 27.6534 31.2776M30.3443 38.1362C29.9767 38.1989 29.6163 38.3214 29.3021 38.5241C28.8807 38.7779 28.5198 39.1746 28.417 39.6669C28.3198 40.0783 28.4555 40.5162 28.7087 40.8453C28.9554 41.1486 29.14 41.5007 29.4268 41.7716C29.8548 42.1688 30.3646 42.4874 30.93 42.6468C31.1212 42.7044 31.2986 42.5781 31.4656 42.5023C32.0024 42.2062 32.476 41.7952 32.8435 41.3046C33.027 41.0469 33.2781 40.8365 33.4094 40.5431C33.6182 40.119 33.5808 39.5888 33.3275 39.1916C33.1254 38.8345 32.7815 38.5867 32.4238 38.4021C31.7854 38.0802 31.0415 38.0269 30.3443 38.1362Z" fill="white"/>
<path d="M27.6533 31.278C27.9252 31.0076 28.2065 30.7379 28.5433 30.5484C29.0251 31.0049 29.3773 31.5763 29.7168 32.1416C30.2624 33.0503 30.6228 34.0529 30.9442 35.0579C31.0496 34.8558 31.1084 34.6343 31.1771 34.4184C31.6447 33.0208 32.3495 31.6907 33.3269 30.5814C34.2076 31.2154 34.9322 32.0565 35.4652 32.9998C36.0321 33.9613 36.42 35.0172 36.7035 36.0939C36.7381 36.2428 36.7864 36.3906 36.7925 36.5455C36.7991 36.6301 36.8084 36.7147 36.8265 36.7999C36.8793 36.7922 36.9315 36.7806 36.9831 36.7641C37.0023 36.7103 37.0183 36.6564 37.0315 36.6021C37.0903 36.3175 37.2111 36.0516 37.2946 35.7747C37.4199 35.389 37.4814 34.9836 37.6237 34.605C37.733 34.6743 37.7408 34.8099 37.7803 34.9226C38.1374 35.9763 38.4154 37.0592 38.5791 38.1606C38.6731 38.8578 38.7055 39.5731 38.5879 40.2692C38.6434 40.767 38.5121 41.2576 38.3885 41.735C37.9654 43.3134 37.0128 44.7935 35.6074 45.6631C35.4937 45.7592 35.3959 45.6147 35.3108 45.5543C34.4213 44.756 33.356 44.144 32.2013 43.8259C31.803 43.7253 31.3986 43.6237 30.985 43.6407C30.2757 43.6061 29.5824 43.8055 28.9214 44.0434C27.9825 44.4203 27.1172 44.973 26.3667 45.6504C26.3113 45.7246 26.2146 45.6932 26.1536 45.6465C24.807 44.7851 23.8708 43.3704 23.4363 41.8465C23.3 41.3322 23.1572 40.8059 23.2116 40.2691C23.1577 39.9791 23.1379 39.6841 23.1138 39.3901C23.161 37.8864 23.5247 36.4107 23.9928 34.9861C24.0422 34.8532 24.0626 34.7054 24.1494 34.5906C24.1708 34.5878 24.2137 34.5829 24.2351 34.5801C24.2466 34.7471 24.2499 34.9169 24.3098 35.0768C24.451 35.6135 24.6037 36.1492 24.8103 36.6651C24.8235 36.7376 24.9004 36.7359 24.9592 36.7403C25.0207 36.2311 25.1927 35.7443 25.3333 35.2537C25.8266 33.794 26.5299 32.3584 27.6534 31.2776M30.3443 38.1362C29.9767 38.1989 29.6163 38.3214 29.3021 38.5241C28.8807 38.7779 28.5198 39.1746 28.417 39.6669C28.3198 40.0783 28.4555 40.5162 28.7087 40.8453C28.9554 41.1486 29.14 41.5007 29.4268 41.7716C29.8548 42.1688 30.3646 42.4874 30.93 42.6468C31.1212 42.7044 31.2986 42.5781 31.4656 42.5023C32.0024 42.2062 32.476 41.7952 32.8435 41.3046C33.027 41.0469 33.2781 40.8365 33.4094 40.5431C33.6182 40.119 33.5808 39.5888 33.3275 39.1916C33.1254 38.8345 32.7815 38.5867 32.4238 38.4021C31.7854 38.0802 31.0415 38.0269 30.3443 38.1362Z" stroke="white"/>
<path d="M3.74121 31.1063C4.16206 31.3376 4.59498 31.5508 5.04876 31.7106C5.63496 31.8996 6.23655 32.1095 6.86232 32.0562C6.87989 32.0287 6.91395 31.9738 6.931 31.9463C7.44744 32.6529 8.06605 33.2764 8.6896 33.8879C9.46753 34.64 10.3114 35.324 11.2064 35.9316C13.0293 37.1859 15.1065 38.0781 17.2822 38.4929C17.3838 38.5088 17.4882 38.4984 17.5887 38.4748C17.5536 38.4221 17.5173 38.3715 17.48 38.3232C17.5146 38.3347 17.5844 38.3578 17.619 38.3693C17.6162 38.3984 17.6096 38.4572 17.6063 38.4869C17.1251 38.9715 16.4543 39.2703 15.767 39.2571C15.9636 39.4445 16.2438 39.495 16.4883 39.5961C17.4058 39.9422 18.3683 40.1521 19.3347 40.3092C19.9374 40.3884 20.5423 40.4653 21.1516 40.4625C21.4834 40.4757 21.8169 40.4433 22.1482 40.4796C22.2234 41.5542 22.5179 42.6189 23.008 43.5803C23.0354 43.6374 23.0547 43.7001 23.0618 43.766C22.8332 43.8336 22.591 43.8182 22.3575 43.8544C21.9174 43.8682 21.4817 43.9451 21.0406 43.933C19.444 43.9764 17.8278 43.8611 16.2933 43.3952C16.2906 43.3699 16.2851 43.3194 16.2823 43.2941C16.79 43.1842 17.3003 43.0271 17.7349 42.7337C17.9745 42.5738 18.22 42.42 18.431 42.2227C18.5074 42.1458 18.6112 42.0744 18.6107 41.9552C17.2949 41.8662 15.9972 41.5684 14.755 41.13C11.7471 40.124 9.04953 38.2699 6.94252 35.9091C6.65519 35.5553 6.34587 35.2207 6.07007 34.8581C5.3207 33.8945 4.65648 32.8649 4.07851 31.7897C3.96096 31.5644 3.80713 31.354 3.74121 31.1063V31.1063Z" fill="#C2C2CE" stroke="#C2C2CE"/>
<path d="M56.8426 31.6765C57.2672 31.5238 57.6644 31.3128 58.065 31.1084C57.9166 31.4815 57.6859 31.8149 57.5024 32.1709C56.9156 33.2368 56.2151 34.2356 55.4636 35.1911C54.9087 35.8432 54.3566 36.5025 53.7132 37.0711C52.0826 38.6369 50.1555 39.8928 48.0645 40.7522C46.5064 41.3692 44.8747 41.8499 43.1953 41.9559C43.1832 42.0928 43.3151 42.1664 43.3997 42.2521C43.9859 42.7586 44.6952 43.1305 45.4572 43.2844C45.4786 43.3009 45.5214 43.3344 45.5434 43.3508C45.2187 43.5151 44.8479 43.5481 44.4996 43.6387C43.2222 43.9376 41.9031 43.9607 40.5977 43.9299C39.9835 43.8634 39.3659 43.8585 38.7512 43.8002C38.7325 43.6206 38.8555 43.4722 38.9176 43.314C39.3225 42.4213 39.5797 41.4565 39.6577 40.4791C40.2268 40.4384 40.8015 40.494 41.3701 40.4313C42.8123 40.3198 44.239 40.0017 45.5929 39.4918C45.7484 39.4298 45.9154 39.3798 46.0379 39.2589C45.6472 39.2474 45.2429 39.1996 44.9001 38.9985C44.6243 38.8414 44.3276 38.6787 44.1535 38.4035C44.2122 38.3667 44.2787 38.2914 44.3556 38.3222C44.4392 38.3524 44.5281 38.3864 44.6188 38.3574C45.6072 38.1129 46.5889 37.8244 47.5229 37.4163C49.3469 36.6548 51.0265 35.5686 52.5247 34.2847C53.3339 33.565 54.1262 32.8145 54.7926 31.9585C54.7992 31.9821 54.8118 32.0294 54.8178 32.053C55.5134 32.119 56.2007 31.9262 56.843 31.6768L56.8426 31.6765Z" fill="#C2C2CE" stroke="#C2C2CE"/>
<path d="M36.7935 36.5462C36.8319 36.5776 36.872 36.6083 36.9138 36.6391C36.9434 36.6303 37.0028 36.6122 37.0324 36.6028C37.0193 36.6572 37.0033 36.7111 36.9841 36.7649C36.9325 36.7814 36.8803 36.7929 36.8275 36.8006C36.8094 36.7154 36.8 36.6308 36.7935 36.5462Z" fill="#8D8D8D" stroke="#8D8D8D"/>
<path d="M30.3441 38.1375C31.0413 38.0281 31.7852 38.0814 32.4236 38.4034C32.7813 38.588 33.1252 38.8357 33.3274 39.1929C33.5806 39.5901 33.618 40.1202 33.4092 40.5444C33.2779 40.8377 33.0268 41.0482 32.8433 41.3058C32.4758 41.7964 32.0022 42.2074 31.4655 42.5035C31.2984 42.5793 31.121 42.7057 30.9298 42.648C30.3645 42.4887 29.8546 42.17 29.4266 41.7728C29.1399 41.502 28.9552 41.1498 28.7086 40.8466C28.4553 40.5175 28.3196 40.0796 28.4168 39.6681C28.5196 39.1758 28.8805 38.7792 29.3019 38.5254C29.6162 38.3226 29.9766 38.2001 30.3441 38.1375ZM30.3491 38.8259C30.0892 38.9094 29.7112 39.0588 29.7365 39.389C29.7189 39.6263 29.9661 39.7532 30.1447 39.8488C30.6249 40.0428 31.1715 40.0516 31.6643 39.8983C31.8934 39.8175 32.1148 39.6697 32.2176 39.4428C32.2439 39.2517 32.1005 39.0786 31.9489 38.9824C31.4643 38.7182 30.8771 38.7072 30.3491 38.8259Z" fill="#171730" stroke="#171730"/>
<path d="M30.3499 38.8269C30.8778 38.7082 31.4651 38.7192 31.9497 38.9835C32.1013 39.0796 32.2447 39.2527 32.2183 39.4439C32.1156 39.6708 31.8942 39.8186 31.6651 39.8993C31.1723 40.0526 30.6256 40.0438 30.1455 39.8499C29.9669 39.7543 29.7197 39.6274 29.7373 39.39C29.712 39.0598 30.09 38.9104 30.3499 38.8269Z" fill="#C2C2CE" stroke="#C2C2CE"/>
</g>
<defs>
<clipPath id="clip0_154_98">
<rect width="61.5862" height="48" fill="white"/>
</clipPath>
</defs>
</svg>
