<svg width="64" height="64" viewBox="0 0 78 78" fill="none" xmlns="http://www.w3.org/2000/svg">
<path d="M38.986 14.7404V22.1192C38.986 22.1192 58.7512 21.3283 58.7512 42.939L66.924 42.6753C66.924 42.6753 67.1876 29.7617 57.6997 21.3283C48.2118 12.8949 38.986 14.7404 38.986 14.7404Z" fill="#D9D9D9"/>
<path d="M39.3806 48.4723C41.7817 48.4723 43.7283 46.5258 43.7283 44.1246C43.7283 41.7234 41.7817 39.7769 39.3806 39.7769C36.9794 39.7769 35.0328 41.7234 35.0328 44.1246C35.0328 46.5258 36.9794 48.4723 39.3806 48.4723Z" fill="#D9D9D9"/>
<path d="M37.0094 23.9631C37.0094 23.9631 20.0054 29.7617 22.9101 46.1011C25.8148 62.4405 44.7829 61.3891 44.7829 61.3891C44.7829 61.3891 28.9707 67.4513 22.1192 53.8793C15.2677 40.3073 23.9631 24.623 37.0094 23.9631Z" fill="#D9D9D9"/>
<path d="M10.8795 43.953H17.8995C18.3332 55.2755 27.6791 64.3562 39.1155 64.3562C50.5518 64.3562 59.8884 55.277 60.3315 43.953H67.13C67.4196 43.953 67.6973 43.838 67.9021 43.6332C68.1069 43.4284 68.222 43.1506 68.222 42.861C68.2218 41.5461 68.1332 40.2328 67.9568 38.9298C67.022 32.0863 63.6925 25.7953 58.5593 21.1739C58.5364 21.1489 58.5119 21.1255 58.486 21.1037C54.9677 17.952 50.7396 15.6977 46.162 14.533C43.9217 13.969 41.6222 13.6736 39.312 13.6531C39.257 13.6484 39.2017 13.6484 39.1467 13.6531H38.9907H38.9813C31.9119 13.6495 25.0833 16.2217 19.773 20.8884L19.7216 20.9305C16.5995 23.6677 14.0982 27.0403 12.385 30.8224C10.6717 34.6045 9.78615 38.709 9.78748 42.861C9.78748 43.1506 9.90253 43.4284 10.1073 43.6332C10.3121 43.838 10.5899 43.953 10.8795 43.953ZM65.7821 39.2262C65.8976 40.067 65.9724 40.9188 66.0068 41.769H60.294C59.9574 36.5054 57.6682 31.5571 53.8746 27.8928L57.8168 23.478C62.1598 27.6878 64.9646 33.2332 65.7821 39.2262ZM58.1553 43.1262C58.1559 46.8924 57.0397 50.5741 54.9477 53.7059C52.8558 56.8376 49.8822 59.2787 46.4029 60.7204C42.9236 62.162 39.0949 62.5396 35.401 61.8052C31.7072 61.0708 28.314 59.2576 25.6507 56.5947C22.9875 53.9318 21.1736 50.539 20.4387 46.8453C19.7037 43.1515 20.0806 39.3228 21.5217 35.8432C22.9628 32.3637 25.4034 29.3897 28.5348 27.2972C31.6662 25.2048 35.3478 24.088 39.1139 24.088C44.1625 24.0937 49.0026 26.102 52.5724 29.672C56.1421 33.242 58.1499 38.0823 58.1553 43.1309V43.1262ZM38.064 15.8465L38.0531 21.9305C33.6859 22.1441 29.4926 23.7079 26.052 26.4061L21.996 21.8665C26.5508 18.1589 32.1943 16.0445 38.064 15.8465ZM56.1897 22.0194L52.2273 26.4545C48.8065 23.7482 44.6315 22.1678 40.2761 21.9305L40.2652 15.8574C46.1015 16.1231 51.6921 18.2842 56.1897 22.0132V22.0194ZM20.3534 23.308L24.4094 27.8398C20.5852 31.5092 18.2766 36.4798 17.94 41.769H11.9933C12.2749 34.7621 15.2746 28.1403 20.3565 23.308H20.3534Z" fill="#1B1B1B"/>
<path d="M41.8767 40.7035L46.8359 29.5464C46.9488 29.2826 46.9533 28.985 46.8485 28.7179C46.7437 28.4508 46.538 28.2357 46.2758 28.1191C46.0137 28.0024 45.7162 27.9937 45.4476 28.0947C45.1791 28.1957 44.961 28.3983 44.8407 28.6587L39.8799 39.8205C38.7252 39.6028 37.5308 39.8172 36.5239 40.4228C35.517 41.0285 34.7678 41.9832 34.4191 43.1053C34.0703 44.2274 34.1462 45.4385 34.6324 46.5083C35.1185 47.578 35.981 48.4317 37.0556 48.9069C38.1303 49.3821 39.3421 49.4456 40.4606 49.0854C41.579 48.7252 42.5261 47.9664 43.1214 46.9534C43.7168 45.9403 43.9189 44.7438 43.6894 43.5914C43.4599 42.439 42.8147 41.4112 41.8767 40.7035ZM39 47.112C38.486 47.1123 37.9833 46.9601 37.5557 46.6747C37.1281 46.3893 36.7948 45.9836 36.5978 45.5087C36.4009 45.0338 36.3492 44.5112 36.4493 44.0069C36.5494 43.5027 36.7968 43.0395 37.1602 42.6758C37.5236 42.3122 37.9867 42.0645 38.4909 41.9641C38.9951 41.8637 39.5177 41.9151 39.9927 42.1117C40.4677 42.3084 40.8737 42.6415 41.1593 43.069C41.445 43.4964 41.5974 43.9989 41.5974 44.513C41.597 45.2019 41.3233 45.8625 40.8363 46.3498C40.3493 46.837 39.6889 47.1112 39 47.112Z" fill="#1B1B1B"/>
</svg>
