<svg width="58" height="64" viewBox="0 0 58 64" fill="none" xmlns="http://www.w3.org/2000/svg">
<g clip-path="url(#clip0_62_13)">
<path d="M26.4971 0.409424C23.7283 1.46532 22.4087 3.34007 22.5639 5.99057L22.6415 7.58518L20.4421 8.05926C17.9321 8.57643 16.1984 9.33064 15.4221 10.1926C14.9305 10.7529 14.9305 10.8606 15.241 12.3475C15.4221 13.1879 15.6809 14.8471 15.7844 16.0108C15.9655 17.5623 16.1467 18.3165 16.5865 18.8768C17.1817 19.7172 19.1483 21.0101 20.9596 21.7859C22.0205 22.2384 22.0723 22.303 21.4771 22.3461C9.91054 23.5529 8.25448 24.1778 5.20111 28.5522C2.51 32.3879 1.13857 35.4263 0.388169 39.2189C2.88314e-05 41.3306 -0.155227 45.3603 0.207037 45.2094L2.07011 44.4337L3.75205 43.7441L4.65771 45.3172C6.67604 48.7434 9.18601 50.963 13.8178 53.4411C15.4739 54.3246 18.2167 55.7899 19.8987 56.6949C23.4178 58.5912 26.4453 60.8754 27.8685 62.7071C28.4119 63.4182 28.9035 64 28.9812 64C29.0588 63.9785 29.4469 63.5259 29.8868 62.9657C30.3008 62.4054 31.4653 61.2418 32.4744 60.3582C34.2599 58.8067 36.3041 57.5785 43.0836 54.0229C48.6469 51.0923 51.131 49.002 53.2529 45.4249L54.2361 43.7441L55.8922 44.4337C56.8237 44.8215 57.6777 45.1663 57.807 45.2094C57.9364 45.2741 57.9882 44.0889 57.8847 42.3219C57.7035 38.8741 56.9531 35.965 55.4782 33.0128C54.5208 31.0518 51.338 26.2896 51.0016 26.2896C50.8723 26.2896 50.717 27.1946 50.6394 28.2721C50.4324 30.7502 49.9666 32.7542 49.5785 32.7542C49.4232 32.7542 48.5434 32.5603 47.6378 32.3232C44.9467 31.6121 41.5828 31.2458 36.8216 31.0949L32.345 30.9657V29.6296L36.3041 29.2633C42.8766 28.6384 45.3089 27.9488 45.4901 26.6559C45.6453 25.4923 43.7564 24.9751 37.5461 24.4364C33.4577 24.1131 26.6264 22.9279 23.7025 22.0444C19.6917 20.8377 17.1041 19.3724 16.5865 18.0364C16.4572 17.6485 16.3019 16.4202 16.2502 15.2781L16.1467 13.2094L17.337 13.8343C19.5364 14.998 23.6766 15.7953 35.8901 17.4545C40.3925 18.0579 42.5143 18.5751 43.4976 19.3077C43.7822 19.5232 43.9892 20.1481 44.1186 21.0747C44.3515 22.9495 44.9984 25.3845 45.3089 25.5569C45.4642 25.6215 45.5159 25.4707 45.4383 25.169C45.0502 23.7037 44.7655 22.0013 44.7655 21.0747C44.7655 20.4929 44.6103 19.7387 44.4033 19.4155C43.7564 18.4027 41.3758 17.67 36.3817 17.002C33.9752 16.6572 31.9828 16.3556 31.9569 16.334C31.931 16.2909 31.8275 15.5582 31.724 14.6963C31.5946 13.5327 31.6464 13.1232 31.8793 13.0586C32.0604 13.0155 33.4577 12.7354 34.9585 12.4337C38.3224 11.7872 40.5995 10.9683 41.5828 10.0633C42.1779 9.50303 42.1779 9.45993 41.6604 9.84781C40.289 10.8606 35.6572 12.132 32.7332 12.3259C31.6981 12.3906 31.6981 12.3906 31.6205 11.5717C31.5429 10.796 31.6464 10.6451 33.0954 9.56767C33.9752 8.89966 34.7774 8.05926 34.9844 7.62828C35.1914 7.11111 35.5019 6.85252 35.9677 6.76633C38.2448 6.33535 39.7973 5.96902 40.7806 5.60269L41.9192 5.19326V6.59394C41.9192 7.47744 41.8157 7.95151 41.6604 7.86532C41.5051 7.77912 41.4016 8.01616 41.4016 8.44714C41.4016 9.24444 40.9618 9.54613 38.1671 10.7529C36.2782 11.5717 37.3132 11.4209 39.4868 10.5589C41.8157 9.61077 41.8933 9.48148 42.2814 6.42155C42.4884 4.82693 42.5402 3.6202 42.3849 3.40471C41.6087 2.11178 37.2615 1.83165 36.4852 3.01683C35.7348 4.18047 36.537 5.06397 38.2189 4.87003C39.2022 4.76229 39.3316 4.80539 39.3316 5.17171C39.3316 5.66734 39.2022 5.73198 38.0378 5.92592C37.2097 6.05522 37.0803 6.01212 36.8216 5.45185L36.537 4.84848L36.6663 5.53804C36.7957 6.18451 36.744 6.24916 36.1229 6.24916C35.5019 6.24916 35.4502 6.18451 35.4502 5.21481C35.4502 1.59461 30.4561 -1.07745 26.4971 0.409424ZM30.4561 3.77104C31.2324 4.22357 31.6464 5.3872 31.31 6.14141C31.0512 6.72323 31.0254 6.72323 30.5078 6.33535C30.1715 6.09831 29.5763 5.92592 28.9812 5.92592C28.386 5.92592 27.7909 6.09831 27.4545 6.33535C26.937 6.72323 26.9111 6.72323 26.6523 6.14141C26.3159 5.3872 26.7299 4.22357 27.5062 3.77104C28.2308 3.36161 29.7316 3.36161 30.4561 3.77104ZM29.6281 6.55084C30.0938 6.83097 30.1197 7.21885 30.1715 11.5502C30.2232 14.6747 30.1715 15.8599 30.0162 15.0842C29.9127 14.4377 29.8092 12.6707 29.7833 11.1838C29.7574 9.17979 29.6539 8.38249 29.3693 8.05926C29.0329 7.69293 29.007 8.10236 28.9812 11.7872C28.9812 14.0714 28.8777 15.9461 28.7483 15.9461C28.6189 15.9461 28.1531 15.8815 27.7132 15.8168L26.8852 15.666L26.9628 11.4855L27.0405 7.2835L27.765 6.76633C28.593 6.16296 28.9553 6.14141 29.6281 6.55084ZM24.2717 9.15825C24.8669 9.67542 25.5914 10.171 25.876 10.2357C26.3159 10.3434 26.3936 10.5589 26.3936 11.6364C26.3936 12.369 26.2642 12.9724 26.083 13.0586C25.9278 13.1448 24.6857 13.5327 23.3143 13.9205L20.8302 14.6316L19.1483 13.9852C17.5698 13.3818 16.3019 12.6061 16.3019 12.2828C16.3019 12.1966 16.8971 11.7657 17.6475 11.3347C18.3979 10.9037 18.8895 10.5589 18.7601 10.5589C18.6049 10.5805 17.9321 10.9037 17.2076 11.3131C16.5089 11.7226 15.8879 12.0027 15.8103 11.938C15.5256 11.701 17.1299 10.6667 19.0189 9.86936C20.1574 9.41683 20.8043 9.0936 20.4421 9.15825C19.3812 9.39528 17.6216 10.0848 16.8194 10.5589C15.9138 11.0976 15.8103 10.9899 16.6383 10.3219C17.4922 9.61077 21.0372 8.44714 23.0297 8.2101C23.1073 8.2101 23.6507 8.61953 24.2717 9.15825ZM25.0739 23.0788L25.876 23.3158V26.2034C25.876 29.5219 26.2901 29.1125 22.5122 29.5219C21.296 29.6512 19.4329 29.9529 18.372 30.1684C16.4572 30.5778 16.3537 30.5778 14.1025 30.1899C12.8087 29.9744 11.3337 29.6296 10.8162 29.4572C9.88466 29.134 9.83291 29.0478 9.83291 28.1859C9.83291 27.6687 10.014 27.0438 10.2211 26.7852C10.8162 26.0956 13.0674 25.4707 17.3111 24.8673C19.3812 24.5657 21.2184 24.2855 21.3477 24.2424C21.8911 24.0485 18.1132 24.3933 15.3445 24.8027C10.5316 25.4923 8.53911 26.3542 8.53911 27.7549C8.53911 28.2074 8.48736 28.2505 8.1251 27.9919C7.63345 27.6471 7.84046 26.8067 8.61674 26.1172C10.1434 24.7596 14.1283 23.8545 22.3828 22.9926C23.8836 22.8417 24.2458 22.8417 25.0739 23.0788ZM27.351 23.833C27.4286 24.0485 27.558 24.0916 27.6615 23.9407C27.765 23.8114 28.1014 23.7683 28.4119 23.8545C28.9812 23.9623 28.9812 24.0269 28.9812 27.4963V31.0303H27.6874L27.6356 27.7333L27.5839 24.4579L27.4286 27.6902C27.3251 29.4572 27.2216 30.9441 27.2216 30.9657C27.1957 31.0088 26.9628 31.0303 26.7041 31.0303C26.2901 31.0303 26.2383 30.7717 26.3418 27.5178C26.3936 25.6 26.4712 23.8976 26.5229 23.7468C26.6782 23.3805 27.144 23.4236 27.351 23.833ZM38.4259 25.4276C43.8857 26.1603 44.248 26.2249 44.248 26.5266C44.248 26.8067 42.2038 27.5825 41.4275 27.5825C41.0911 27.5825 40.8582 27.6471 40.9618 27.7118C41.2464 27.9704 43.213 27.5394 44.1186 27.0438C44.6103 26.7636 45.076 26.6128 45.1537 26.7205C45.3866 27.0222 43.8081 27.7549 42.3332 28.0135C40.5477 28.3367 35.9677 28.8323 33.8976 28.9185L32.2157 28.9832L32.138 26.7636L32.0604 24.5226L32.7849 24.6519C33.1731 24.7165 35.7348 25.0828 38.4259 25.4276ZM7.50407 34.435C7.78871 35.297 8.02159 36.202 7.99572 36.4822C7.96984 37.2364 7.0383 35.297 6.41728 33.1852C6.10677 32.1724 5.77038 31.2673 5.66687 31.1596C5.56337 31.0734 5.27874 31.2889 5.04585 31.6768C4.63183 32.3448 4.65771 32.431 5.45987 34.5212C5.89976 35.6848 6.88305 37.6458 7.60758 38.8525C8.74612 40.7704 9.03076 41.0505 9.65178 41.1152C10.5057 41.2013 10.5057 41.1152 9.67766 39.93C8.61674 38.4 9.13426 38.6155 10.4281 40.2316L11.6184 41.697L9.36714 41.9771C6.77954 42.2788 4.39895 42.8822 2.27712 43.7657C1.44909 44.1104 0.724557 44.3906 0.621053 44.3906C0.362293 44.3906 0.724557 40.1886 1.13857 38.3354C1.83723 35.297 3.18278 32.4525 5.38224 29.4141L6.33965 28.1212L6.65016 30.4916C6.8313 31.7845 7.21944 33.5731 7.50407 34.435ZM9.31539 29.7374C10.3763 30.1899 12.3688 30.664 14.827 31.0518C15.5515 31.1811 21.71 31.3535 28.4636 31.4613C37.8049 31.5906 41.324 31.7199 43.0836 31.9785C46.0076 32.4094 48.6987 33.0343 49.7596 33.5731C50.5618 33.9609 50.5876 33.9825 50.4582 35.2539C50.3806 35.9434 50.3289 37.8397 50.3547 39.4343C50.3547 41.8694 50.4324 42.5158 50.8981 43.4855L51.4674 44.6276L50.6394 45.0586C48.8798 45.9421 46.2146 46.2653 44.1186 45.8128C40.4184 44.9939 40.1596 43.2054 43.834 43.938C46.2146 44.4121 46.1628 44.4121 46.3181 43.1623L46.4475 42.0202L47.8706 42.5589C49.0609 43.0114 49.1903 43.033 48.6469 42.6667C48.2847 42.4512 47.1979 41.9987 46.1887 41.697C42.6178 40.6195 41.1946 40.4902 29.7574 40.2963C17.0523 40.0808 13.9213 39.7576 10.3246 38.2492L9.13426 37.732L8.979 35.297C8.82375 33.1421 8.56499 31.3751 8.15097 29.7805C7.99572 29.1987 8.04747 29.1987 9.31539 29.7374ZM53.1494 31.6337C54.9865 34.6505 55.9698 37.4949 56.3839 40.9212C56.7202 43.5717 56.7202 43.3131 56.4615 43.3131C56.3321 43.3131 56.0475 42.2572 55.8146 40.9643C55.3229 38.2061 54.469 35.9434 52.9682 33.4007C52.2696 32.237 51.9073 31.3535 51.9591 30.9657C52.0626 30.2114 52.3989 30.3838 53.1494 31.6337ZM15.0081 40.2101C16.069 40.3825 18.786 40.5764 21.0372 40.6626C23.2884 40.7273 25.1774 40.8566 25.2291 40.9643C25.3068 41.0505 25.255 42.5589 25.1256 44.3475C24.8669 47.9461 24.5046 48.8943 23.1849 49.6054C22.6157 49.9071 22.0723 49.9933 21.296 49.9286C19.8728 49.7993 16.8971 48.5279 14.5423 47.0411C12.731 45.8774 9.57415 43.2269 9.57415 42.8606C9.57415 42.7529 10.4539 42.6667 11.5149 42.6667C12.5758 42.6667 13.4556 42.6236 13.4556 42.5589C13.4556 42.4943 13.0674 41.934 12.6016 41.3091C12.1359 40.6842 11.6442 40.0593 11.5149 39.8869C11.3337 39.6283 11.4631 39.6067 12.1876 39.736C12.6793 39.8222 13.9472 40.0377 15.0081 40.2101ZM26.7817 44.4337C26.6782 46.4808 26.4971 48.7003 26.3677 49.3468C26.2383 49.9933 26.1348 52.3421 26.1348 54.5616C26.1348 58.4404 26.1607 58.6128 26.7041 59.0438C27.0146 59.2808 27.351 59.4747 27.4804 59.4747C27.5839 59.4747 27.6874 55.2512 27.6874 50.101V40.7273H28.9812V62.1253L27.0663 60.5953C25.3326 59.2377 23.5989 58.2249 13.9472 52.9455C9.39302 50.4673 6.70192 48.0323 5.04585 44.9293C4.68359 44.2397 4.39895 43.6579 4.39895 43.6364C4.39895 43.5933 4.81297 43.4424 5.35636 43.2916C6.26202 43.0545 6.31378 43.0761 6.8313 43.6579C7.91809 44.9293 10.7903 47.2997 12.8087 48.5495C15.1892 50.0364 18.5014 51.3939 20.1833 51.5879L21.3477 51.7172L20.3903 51.4155C16.5865 50.1872 11.9547 47.4074 9.26364 44.7354C8.43561 43.9165 7.76283 43.1623 7.76283 43.0545C7.76283 42.9468 7.94396 42.8175 8.17685 42.7313C8.48736 42.6451 8.79787 42.796 9.16014 43.2269C12.0841 46.6532 19.0189 50.6397 22.0464 50.6397C24.9704 50.6397 25.3844 50.0148 25.669 45.037C25.7984 42.9683 25.9537 41.1367 26.0054 40.9859C26.0572 40.8566 26.3159 40.7273 26.5488 40.7273C26.937 40.7273 26.9628 41.0721 26.7817 44.4337ZM31.4135 44.6276C31.6205 48.9158 31.8793 49.8424 33.1472 50.7259C35.3208 52.2559 39.6679 51.0923 44.869 47.6229C47.1461 46.0929 48.2847 45.8343 46.7062 47.2135C43.5752 49.9286 38.2965 52.5791 35.6572 52.73C33.2248 52.8808 31.7499 51.8896 31.3359 49.7778C30.9995 48.1616 30.7407 40.7273 31.0254 40.7273C31.1289 40.7273 31.31 42.4727 31.4135 44.6276ZM40.0043 41.0936C40.4701 41.2444 40.4701 42.2788 39.9785 43.6148C39.6421 44.5414 39.6421 44.7354 39.9785 45.1663C40.3407 45.6189 41.7122 46.136 43.3423 46.4377L44.1186 46.5886L43.3423 47.1057C41.2464 48.5279 37.6237 49.9933 36.1747 49.9933C35.2432 49.9933 34.027 49.2606 33.5095 48.3771C33.1213 47.666 32.6814 44.2828 32.6038 41.1798V40.6626L36.1229 40.8135C38.0378 40.8997 39.7973 41.029 40.0043 41.0936Z" fill="#494949"/>
<path d="M32.8625 32.1077C32.8625 32.237 33.6647 32.3232 34.7515 32.3232C37.0545 32.3232 42.2555 32.7111 43.4717 32.9912C44.2739 33.1636 44.2221 33.1636 43.0836 33.0774C38.4259 32.6896 35.683 32.5172 35.1396 32.5818C34.8032 32.6249 35.3725 32.7542 36.3558 32.8404C37.365 32.9481 39.1504 33.1636 40.3666 33.3145C42.7213 33.6162 42.6437 33.6162 37.779 33.2929L36.3558 33.2067L37.779 33.4222C44.7396 34.4997 46.3698 34.9306 47.7154 36.1158C48.1035 36.4606 48.6469 37.3872 48.9316 38.2061C49.2421 39.0034 49.5008 39.6498 49.5526 39.6067C49.5785 39.5636 49.682 38.2922 49.7855 36.7838L49.9666 34.0256L48.9833 33.7024C46.6545 32.8835 43.0836 32.3232 38.9693 32.1077C33.7165 31.8492 32.8625 31.8492 32.8625 32.1077Z" fill="#494949"/>
<path d="M9.41899 34.7582L9.44487 37.4949L10.2988 37.8397C13.7403 39.1973 18.4497 39.8869 24.1424 39.8438L28.3344 39.8007L24.8411 39.6283C17.8028 39.2835 11.4891 38.1414 10.4282 37.0209C10.2729 36.87 10.0918 35.965 10.0141 35.0168C9.70363 31.9138 9.39312 31.763 9.41899 34.7582Z" fill="#494949"/>
</g>
<defs>
<clipPath id="clip0_62_13">
<rect width="57.9623" height="64" fill="white"/>
</clipPath>
</defs>
</svg>
