<svg width="243" height="301" viewBox="0 0 243 301" fill="none" xmlns="http://www.w3.org/2000/svg">
<path fill-rule="evenodd" clip-rule="evenodd" d="M61.7029 23.3963C44.7415 29.4201 35.8661 48.0699 41.8885 65.0319C46.8557 79.0221 60.4156 87.4784 74.5293 86.6436L78.9944 99.2196L75.2024 100.566C72.3532 101.578 70.6846 104.395 71.0468 107.271L31.385 121.357C26.8568 114.845 20.1652 111.441 14.4651 113.466C7.02715 116.107 4.05256 126.969 7.8582 137.688C11.6636 148.406 20.8221 154.96 28.2596 152.318C34.0407 150.265 37.0879 143.237 36.3819 135.184L75.967 121.125C77.506 123.565 80.5828 124.715 83.4199 123.707L84.8129 123.213C97.7309 172.918 126.046 239.231 111.972 246.343C95.8893 253.576 50.4166 230.273 51.7227 226.867C53.5439 224.974 60.4514 222.916 62.0915 222.444L69.267 210.745L10.1394 202.896L35.6062 265.664L36.3487 264.442C38.8827 255.776 41.4027 242.471 41.7815 240.594C50.6562 251.768 65.4754 261.819 77.9323 270.371C98.5545 283.824 144.666 291.356 176.975 263.738C208.887 240.861 205.205 204.747 214.819 179.487C216.141 180.577 224.554 187.702 231.638 192.862L236.422 194.431L215.223 130.061L175.212 174.337L186.805 178.151C188.23 177.542 195.072 174.69 197.719 175.015C203.498 179.844 182.741 211.965 178.477 217.407C160.362 235.814 155.602 228.386 149.97 219.47C145.01 211.615 113.844 134.719 106.134 115.64L108.107 114.94C110.945 113.932 112.607 111.098 112.263 108.235L151.848 94.1759C156.378 100.871 163.174 104.403 168.956 102.35C176.394 99.7081 179.369 88.8461 175.563 78.1274C171.757 67.4095 162.599 60.8558 155.161 63.4973C149.461 65.5217 146.415 72.384 147.007 80.294L107.345 94.38C105.813 91.9193 102.742 90.7859 99.8924 91.7978L96.1003 93.1446L91.6352 80.5686C103.115 72.3129 108.305 57.1971 103.338 43.2082C97.3156 26.2462 78.6676 17.3714 61.7062 23.3952L61.7029 23.3963ZM66.539 37.0174C75.9792 33.6647 86.3624 38.6068 89.714 48.0466C93.0658 57.4871 88.1236 67.8713 78.684 71.2238C69.2439 74.5765 58.8607 69.6344 55.5091 60.1946C52.1572 50.7541 57.0995 40.3699 66.539 37.0174Z" fill="#7CBAD2" stroke="#071F2C"/>
<path fill-rule="evenodd" clip-rule="evenodd" d="M63.0939 26.8242C59.4532 28.2266 55.5232 30.3097 51.4535 33.3113C51.1683 33.9107 53.1346 36.6611 60.1524 31.1806C67.1704 25.7 84.3945 26.5612 80.3569 25.0072C77.5809 23.9388 71.1036 23.7388 63.0939 26.8242ZM88.6516 82.2394L87.7641 82.6853C87.6099 82.7649 87.7505 83.5298 88.0566 84.368L91.8009 93.9321C92.1069 94.7704 92.4783 95.3722 92.6325 95.2926L93.4813 94.8604C93.6355 94.7808 93.4949 94.0159 93.1889 93.1778L89.4832 83.5999C89.1773 82.7616 88.8058 82.1598 88.6516 82.2394ZM20.9651 115.822C18.4776 116.705 16.143 119.294 15.7329 119.248C14.9726 123.969 20.5093 122.955 22.2733 122.329C24.0422 121.701 23.6184 114.879 20.9651 115.822ZM157.591 67.2985C154.938 68.2409 158.872 73.8158 160.641 73.1876C162.41 72.5593 167.423 69.8139 163.799 66.6191C163.956 67.0613 160.245 66.3561 157.591 67.2985ZM100.564 94.6982L76.2163 103.563C75.3253 103.888 74.6981 104.271 74.7784 104.423L74.8059 104.5L74.4851 104.701C74.3332 104.781 74.4666 105.531 74.7913 106.422L76.2039 110.278C76.5286 111.169 76.9248 111.835 77.0767 111.755L78.1689 111.149C78.3208 111.069 78.1736 110.28 77.8489 109.389L76.4501 105.572C76.4051 105.448 76.3478 105.389 76.3015 105.276C76.5329 105.215 76.7446 105.164 77.0117 105.067L101.36 96.2021C101.591 96.1172 101.722 96.0057 101.913 95.9185C101.968 96.1286 102.006 96.3121 102.094 96.5514L107.019 110.055C106.722 110.117 106.371 110.194 105.985 110.334L102.129 111.747C101.238 112.072 100.611 112.455 100.692 112.607L101.258 113.713C101.339 113.865 102.128 113.717 103.019 113.392L106.836 111.993C107.222 111.852 107.544 111.659 107.801 111.52C107.837 111.543 107.88 111.583 107.905 111.57L108.934 111.03C109.088 110.951 108.961 110.224 108.655 109.386L103.676 95.7295C103.37 94.8912 102.998 94.2894 102.844 94.369L102.446 94.5975L102.325 94.3791C102.244 94.2272 101.455 94.3734 100.564 94.6982ZM144.66 83.5259L111.633 95.5603C110.795 95.8664 110.193 96.2379 110.273 96.3921L110.719 97.2796C110.798 97.4338 111.524 97.3069 112.363 97.0007L145.375 84.9276C146.214 84.6216 146.815 84.2501 146.736 84.0958L146.304 83.2471C146.224 83.0928 145.498 83.2198 144.66 83.5259ZM66.9574 111.601L33.9831 123.661C33.1448 123.967 32.5044 124.352 32.5838 124.506L33.0546 125.341C33.1342 125.496 33.8604 125.369 34.6986 125.063L67.725 113.028C68.5633 112.722 69.1651 112.351 69.0855 112.196L68.6397 111.309C68.5601 111.155 67.7956 111.295 66.9574 111.601ZM101.305 116.79C101.209 116.819 101.141 116.873 101.048 116.925L100.868 117.032C100.121 117.448 99.7611 118.44 100.093 119.268L141.393 222.212C141.725 223.04 142.608 223.369 143.355 222.953L143.535 222.845C144.283 222.429 144.603 221.451 144.271 220.623L102.972 117.679C102.681 116.955 101.977 116.586 101.305 116.79ZM19.583 209.391C19.2135 209.624 18.9361 209.978 18.8105 210.406C18.5592 211.262 19.0557 212.087 19.9368 212.228L53.3924 217.603C54.2735 217.744 55.2069 217.159 55.4581 216.303C55.7093 215.446 55.1741 214.635 54.293 214.494L20.8374 209.12C20.3969 209.049 19.9524 209.158 19.583 209.391ZM209.998 141.765C209.802 141.862 209.621 141.959 209.472 142.126L186.898 167.399C186.303 168.064 186.438 169.018 187.173 169.524C187.908 170.03 188.963 169.909 189.557 169.243L212.131 143.97C212.726 143.305 212.591 142.352 211.856 141.845C211.305 141.466 210.584 141.472 209.998 141.765Z" fill="#B9EBFF"/>
</svg>
