<svg width="26" height="20" viewBox="0 0 26 20" fill="none" xmlns="http://www.w3.org/2000/svg">
<path d="M21.4771 1.85326C19.8371 1.09326 18.0904 0.533257 16.2504 0.213257C16.0237 0.613257 15.7571 1.15992 15.5837 1.59992C13.6371 1.30659 11.7037 1.30659 9.79708 1.59992C9.61042 1.15992 9.34375 0.613257 9.11708 0.213257C7.27708 0.533257 5.53042 1.09326 3.89042 1.85326C0.583752 6.83992 -0.309582 11.7066 0.130418 16.4933C2.33042 18.1333 4.45042 19.12 6.54375 19.7733C7.06375 19.0666 7.51708 18.3066 7.91708 17.52C7.15708 17.24 6.43708 16.88 5.75708 16.4666C5.94375 16.3333 6.11708 16.1866 6.29042 16.0533C10.4637 18 14.9837 18 19.1037 16.0533C19.2771 16.2 19.4504 16.3333 19.6371 16.4666C18.9571 16.88 18.2237 17.2266 17.4771 17.52C17.8771 18.3066 18.3304 19.0666 18.8504 19.7733C20.9437 19.12 23.0771 18.1333 25.2637 16.4933C25.7837 10.9333 24.3704 6.11992 21.5037 1.85326H21.4771ZM8.47708 13.56C7.22375 13.56 6.19708 12.4 6.19708 10.9733C6.19708 9.54663 7.19708 8.38663 8.47708 8.38663C9.75708 8.38663 10.7704 9.54663 10.7571 10.9733C10.7571 12.3866 9.75708 13.56 8.47708 13.56ZM16.8904 13.56C15.6371 13.56 14.6104 12.4 14.6104 10.9733C14.6104 9.54663 15.6104 8.38663 16.8904 8.38663C18.1704 8.38663 19.1837 9.54663 19.1704 10.9733C19.1704 12.3866 18.1704 13.56 16.8904 13.56Z" fill="#48F499"/>
</svg>
