<svg width="33" height="32" viewBox="0 0 33 32" fill="none" xmlns="http://www.w3.org/2000/svg">
<path fill-rule="evenodd" clip-rule="evenodd" d="M16.3096 24C20.7278 24 24.3096 20.4183 24.3096 16C24.3096 11.5817 20.7278 8 16.3096 8C11.8913 8 8.30957 11.5817 8.30957 16C8.30957 20.4183 11.8913 24 16.3096 24ZM16.3096 21.3333C19.255 21.3333 21.6429 18.9455 21.6429 16C21.6429 13.0545 19.255 10.6667 16.3096 10.6667C13.3641 10.6667 10.9762 13.0545 10.9762 16C10.9762 18.9455 13.3641 21.3333 16.3096 21.3333Z" fill="#48F499"/>
<path d="M24.3096 6.66663C23.5732 6.66663 22.9763 7.26359 22.9763 7.99996C22.9763 8.73633 23.5732 9.33329 24.3096 9.33329C25.046 9.33329 25.6429 8.73633 25.6429 7.99996C25.6429 7.26359 25.046 6.66663 24.3096 6.66663Z" fill="#48F499"/>
<path fill-rule="evenodd" clip-rule="evenodd" d="M2.51483 5.70145C1.64288 7.41275 1.64288 9.65296 1.64288 14.1334V17.8667C1.64288 22.3471 1.64288 24.5874 2.51483 26.2986C3.28182 27.8039 4.50566 29.0278 6.01096 29.7947C7.72226 30.6667 9.96247 30.6667 14.4429 30.6667H18.1762C22.6566 30.6667 24.8969 30.6667 26.6081 29.7947C28.1134 29.0278 29.3373 27.8039 30.1042 26.2986C30.9762 24.5874 30.9762 22.3471 30.9762 17.8667V14.1334C30.9762 9.65296 30.9762 7.41275 30.1042 5.70145C29.3373 4.19615 28.1134 2.97231 26.6081 2.20532C24.8969 1.33337 22.6566 1.33337 18.1762 1.33337H14.4429C9.96247 1.33337 7.72226 1.33337 6.01096 2.20532C4.50566 2.97231 3.28182 4.19615 2.51483 5.70145ZM18.1762 4.00004H14.4429C12.1587 4.00004 10.6059 4.00212 9.40566 4.10017C8.23654 4.19569 7.63867 4.36883 7.2216 4.58133C6.21807 5.09267 5.40218 5.90856 4.89084 6.91209C4.67834 7.32916 4.5052 7.92703 4.40968 9.09615C4.31163 10.2964 4.30955 11.8492 4.30955 14.1334V17.8667C4.30955 20.151 4.31163 21.7036 4.40968 22.9039C4.5052 24.0731 4.67834 24.671 4.89084 25.088C5.40218 26.0915 6.21807 26.9074 7.2216 27.4187C7.63867 27.6312 8.23654 27.8044 9.40566 27.8999C10.6059 27.9979 12.1587 28 14.4429 28H18.1762C20.4605 28 22.0131 27.9979 23.2134 27.8999C24.3826 27.8044 24.9805 27.6312 25.3975 27.4187C26.401 26.9074 27.2169 26.0915 27.7282 25.088C27.9407 24.671 28.1139 24.0731 28.2094 22.9039C28.3074 21.7036 28.3095 20.151 28.3095 17.8667V14.1334C28.3095 11.8492 28.3074 10.2964 28.2094 9.09615C28.1139 7.92703 27.9407 7.32916 27.7282 6.91209C27.2169 5.90856 26.401 5.09267 25.3975 4.58133C24.9805 4.36883 24.3826 4.19569 23.2134 4.10017C22.0131 4.00212 20.4605 4.00004 18.1762 4.00004Z" fill="#48F499"/>
</svg>
