<svg width="33" height="32" viewBox="0 0 33 32" fill="none" xmlns="http://www.w3.org/2000/svg">
<g clip-path="url(#clip0_78_780)">
<path fill-rule="evenodd" clip-rule="evenodd" d="M10.7544 28.7996C22.8296 28.7996 29.4344 18.9493 29.4344 10.4082C29.4344 10.1278 29.4344 9.84953 29.4152 9.57228C30.7 8.65862 31.8088 7.5242 32.6904 6.22619C31.4936 6.74918 30.2216 7.09216 28.9208 7.24337C30.2904 6.43526 31.316 5.16567 31.8072 3.66759C30.5176 4.42057 29.108 4.95199 27.6376 5.23712C25.1512 2.63477 20.9928 2.50869 18.348 4.95665C16.644 6.53507 15.9192 8.88846 16.4488 11.1332C11.1704 10.8717 6.25203 8.4175 2.91763 4.38009C1.17523 7.33371 2.06643 11.1108 4.95123 13.0074C3.90643 12.9775 2.88403 12.7006 1.97043 12.1996V12.2817C1.97203 15.3582 4.17523 18.0072 7.23763 18.6168C6.27123 18.8767 5.25683 18.9144 4.27443 18.727C5.13363 21.3608 7.59923 23.1648 10.4072 23.2168C8.08243 25.0158 5.21043 25.9926 2.25363 25.9895C1.73203 25.9879 1.21043 25.9579 0.69043 25.8965C3.69363 27.7931 7.18643 28.7997 10.7544 28.7949" fill="#48F499"/>
</g>
<defs>
<clipPath id="clip0_78_780">
<rect width="32" height="32" fill="white" transform="translate(0.69043)"/>
</clipPath>
</defs>
</svg>
